ply
format ascii 1.0
comment Feeney's Flatenator generated
comment TextureFile SpaceInteriors_Texture.png
element vertex 12
property float x
property float y
property float z
property float nx
property float ny
property float nz
property uchar red
property uchar green
property uchar blue
property uchar alpha
property float texture_u
property float texture_v
element face 4
property list uchar int vertex_indices
end_header
-4.66568 0.196164 -0.33432 -0 18.7608 0 157 152 148 255 0.364133 0.061667 
-0.334309 0.196164 -0.33432 -0 18.7608 0 157 152 148 255 0.364133 0.061667 
-0.334309 0.196164 -4.6657 -0 18.7608 0 157 152 148 255 0.364133 0.061667 
-4.66568 0.196164 -0.33432 0 18.7608 0 157 152 148 255 0.364133 0.061667 
-0.334309 0.196164 -4.6657 0 18.7608 0 157 152 148 255 0.364133 0.061667 
-4.66568 0.196164 -4.6657 0 18.7608 0 157 152 148 255 0.364133 0.061667 
-4.66568 -3e-06 -4.6657 0 -18.7608 0 108 105 102 255 0.264248 0.061667 
-0.334309 -3e-06 -4.6657 0 -18.7608 0 108 105 102 255 0.264248 0.061667 
-0.334309 -3e-06 -0.33432 0 -18.7608 0 108 105 102 255 0.264248 0.061667 
-4.66568 -3e-06 -4.6657 0 -18.7608 0 108 105 102 255 0.264248 0.061667 
-0.334309 -3e-06 -0.33432 0 -18.7608 0 108 105 102 255 0.264248 0.061667 
-4.66568 -3e-06 -0.33432 0 -18.7608 0 108 105 102 255 0.264248 0.061667 
3 0 1 2
3 3 4 5
3 6 7 8
3 9 10 11
