ply
format ascii 1.0
comment Feeney's Flatenator generated
comment TextureFile SpaceInteriors_Texture.png
element vertex 222
property float x
property float y
property float z
property float nx
property float ny
property float nz
property uchar red
property uchar green
property uchar blue
property uchar alpha
property float texture_u
property float texture_v
element face 74
property list uchar int vertex_indices
end_header
-1.57261 5 -1.57261 0 3.44019 0 141 137 133 255 0.325292 0.060574 
-1.57261 5 -3.42738 0 3.44019 0 141 137 133 255 0.325292 0.060574 
-3.42739 5 -3.42738 0 3.44019 0 141 137 133 255 0.325292 0.060574 
-1.57261 5 -1.57261 0 3.44019 0 141 137 133 255 0.325292 0.060574 
-3.42739 5 -3.42738 0 3.44019 0 141 137 133 255 0.325292 0.060574 
-3.42739 5 -1.57261 0 3.44019 0 141 137 133 255 0.325292 0.060574 
0 0 0 0.99458 0 0 108 105 102 255 0.26389 0.060574 
0 0 -5 0.99458 0 0 108 105 102 255 0.26389 0.060574 
0 0.198916 -5 0.99458 0 0 108 105 102 255 0.26389 0.060574 
0 0 0 0.99458 -0 0 108 105 102 255 0.26389 0.060574 
0 0.198916 -5 0.99458 -0 0 108 105 102 255 0.26389 0.060574 
0 0.198916 0 0.99458 -0 0 108 105 102 255 0.26389 0.060574 
0 0 -5 0 0 -0.99458 125 121 118 255 0.298564 0.060574 
-5 0 -5 0 0 -0.99458 125 121 118 255 0.298564 0.060574 
-5 0.198916 -5 0 0 -0.99458 125 121 118 255 0.298564 0.060574 
0 0 -5 0 0 -0.99458 125 121 118 255 0.298564 0.060574 
-5 0.198916 -5 0 0 -0.99458 125 121 118 255 0.298564 0.060574 
0 0.198916 -5 0 0 -0.99458 125 121 118 255 0.298564 0.060574 
-5 0 -5 -0.99458 0 0 108 105 102 255 0.26389 0.060574 
-5 0 0 -0.99458 0 0 108 105 102 255 0.26389 0.060574 
-5 0.198916 0 -0.99458 0 0 108 105 102 255 0.26389 0.060574 
-5 0 -5 -0.99458 0 0 108 105 102 255 0.26389 0.060574 
-5 0.198916 0 -0.99458 0 0 108 105 102 255 0.26389 0.060574 
-5 0.198916 -5 -0.99458 0 0 108 105 102 255 0.26389 0.060574 
-5 0 0 0 0 0.99458 125 121 118 255 0.298564 0.060574 
0 0 0 0 0 0.99458 125 121 118 255 0.298564 0.060574 
0 0.198916 0 0 0 0.99458 125 121 118 255 0.298564 0.060574 
-5 0 0 0 0 0.99458 125 121 118 255 0.298564 0.060574 
0 0.198916 0 0 0 0.99458 125 121 118 255 0.298564 0.060574 
-5 0.198916 0 0 0 0.99458 125 121 118 255 0.298564 0.060574 
0 0.198916 0 0 1.18059 0 141 137 133 255 0.325292 0.060574 
0 0.198916 -5 0 1.18059 0 141 137 133 255 0.325292 0.060574 
-0.236118 0.198916 -4.76388 0 1.18059 0 141 137 133 255 0.325292 0.060574 
0 0.198916 0 0 1.06909 0 141 137 133 255 0.325292 0.060574 
-0.236118 0.198916 -4.76388 0 1.06909 0 141 137 133 255 0.325292 0.060574 
-0.236118 0.198916 -0.236115 0 1.06909 0 141 137 133 255 0.325292 0.060574 
0 0.198916 -5 0 1.1806 0 141 137 133 255 0.325292 0.060574 
-5 0.198916 -5 0 1.1806 0 141 137 133 255 0.325292 0.060574 
-4.76388 0.198916 -4.76388 0 1.1806 0 141 137 133 255 0.325292 0.060574 
0 0.198916 -5 0 1.0691 0 141 137 133 255 0.325292 0.060574 
-4.76388 0.198916 -4.76388 0 1.0691 0 141 137 133 255 0.325292 0.060574 
-0.236118 0.198916 -4.76388 0 1.0691 0 141 137 133 255 0.325292 0.060574 
-5 0.198916 -5 0 1.1806 0 141 137 133 255 0.325292 0.060574 
-5 0.198916 0 0 1.1806 0 141 137 133 255 0.325292 0.060574 
-4.76388 0.198916 -0.236115 0 1.1806 0 141 137 133 255 0.325292 0.060574 
-5 0.198916 -5 0 1.0691 0 141 137 133 255 0.325292 0.060574 
-4.76388 0.198916 -0.236115 0 1.0691 0 141 137 133 255 0.325292 0.060574 
-4.76388 0.198916 -4.76388 0 1.0691 0 141 137 133 255 0.325292 0.060574 
-5 0.198916 0 -0 1.18058 0 141 137 133 255 0.325292 0.060574 
0 0.198916 0 -0 1.18058 0 141 137 133 255 0.325292 0.060574 
-0.236118 0.198916 -0.236115 -0 1.18058 0 141 137 133 255 0.325292 0.060574 
-5 0.198916 0 0 1.06907 0 141 137 133 255 0.325292 0.060574 
-0.236118 0.198916 -0.236115 0 1.06907 0 141 137 133 255 0.325292 0.060574 
-4.76388 0.198916 -0.236115 0 1.06907 0 141 137 133 255 0.325292 0.060574 
-0.236118 0.198916 -0.236115 1.4284 0 0 108 105 102 255 0.266344 0.060574 
-0.236118 0.198916 -4.76388 1.4284 0 0 108 105 102 255 0.266344 0.060574 
-0.236118 0.514392 -4.76388 1.4284 0 0 108 105 102 255 0.266344 0.060574 
-0.236118 0.198916 -0.236115 1.4284 -0 0 108 105 102 255 0.266344 0.060574 
-0.236118 0.514392 -4.76388 1.4284 -0 0 108 105 102 255 0.266344 0.060574 
-0.236118 0.514392 -0.236115 1.4284 -0 0 108 105 102 255 0.266344 0.060574 
-0.236118 0.198916 -4.76388 0 0 -1.4284 125 121 118 255 0.296008 0.060574 
-4.76388 0.198916 -4.76388 0 0 -1.4284 125 121 118 255 0.296008 0.060574 
-4.76388 0.514392 -4.76388 0 0 -1.4284 125 121 118 255 0.296008 0.060574 
-0.236118 0.198916 -4.76388 0 0 -1.4284 125 121 118 255 0.296008 0.060574 
-4.76388 0.514392 -4.76388 0 0 -1.4284 125 121 118 255 0.296008 0.060574 
-0.236118 0.514392 -4.76388 0 0 -1.4284 125 121 118 255 0.296008 0.060574 
-4.76388 0.198916 -4.76388 -1.4284 0 0 108 105 102 255 0.266344 0.060574 
-4.76388 0.198916 -0.236115 -1.4284 0 0 108 105 102 255 0.266344 0.060574 
-4.76388 0.514392 -0.236115 -1.4284 0 0 108 105 102 255 0.266344 0.060574 
-4.76388 0.198916 -4.76388 -1.4284 0 0 108 105 102 255 0.266344 0.060574 
-4.76388 0.514392 -0.236115 -1.4284 0 0 108 105 102 255 0.266344 0.060574 
-4.76388 0.514392 -4.76388 -1.4284 0 0 108 105 102 255 0.266344 0.060574 
-4.76388 0.198916 -0.236115 0 0 1.4284 125 121 118 255 0.296008 0.060574 
-0.236118 0.198916 -0.236115 0 0 1.4284 125 121 118 255 0.296008 0.060574 
-0.236118 0.514392 -0.236115 0 0 1.4284 125 121 118 255 0.296008 0.060574 
-4.76388 0.198916 -0.236115 0 0 1.4284 125 121 118 255 0.296008 0.060574 
-0.236118 0.514392 -0.236115 0 0 1.4284 125 121 118 255 0.296008 0.060574 
-4.76388 0.514392 -0.236115 0 0 1.4284 125 121 118 255 0.296008 0.060574 
-0.236118 0.514392 -0.236115 0 6.08714 0 141 137 133 255 0.325292 0.060574 
-0.236118 0.514392 -4.76388 0 6.08714 0 141 137 133 255 0.325292 0.060574 
-1.58052 0.514392 -3.41947 0 6.08714 0 141 137 133 255 0.325292 0.060574 
-0.236118 0.514392 -0.236115 0 2.47229 0 141 137 133 255 0.325292 0.060574 
-1.58052 0.514392 -3.41947 0 2.47229 0 141 137 133 255 0.325292 0.060574 
-1.58052 0.514392 -1.58052 0 2.47229 0 141 137 133 255 0.325292 0.060574 
-0.236118 0.514392 -4.76388 0 6.08717 0 141 137 133 255 0.325292 0.060574 
-4.76388 0.514392 -4.76388 0 6.08717 0 141 137 133 255 0.325292 0.060574 
-3.41948 0.514392 -3.41947 0 6.08717 0 141 137 133 255 0.325292 0.060574 
-0.236118 0.514392 -4.76388 0 2.47232 0 141 137 133 255 0.325292 0.060574 
-3.41948 0.514392 -3.41947 0 2.47232 0 141 137 133 255 0.325292 0.060574 
-1.58052 0.514392 -3.41947 0 2.47232 0 141 137 133 255 0.325292 0.060574 
-4.76388 0.514392 -4.76388 0 6.08713 0 141 137 133 255 0.325292 0.060574 
-4.76388 0.514392 -0.236115 0 6.08713 0 141 137 133 255 0.325292 0.060574 
-3.41948 0.514392 -1.58052 0 6.08713 0 141 137 133 255 0.325292 0.060574 
-4.76388 0.514392 -4.76388 0 2.47228 0 141 137 133 255 0.325292 0.060574 
-3.41948 0.514392 -1.58052 0 2.47228 0 141 137 133 255 0.325292 0.060574 
-3.41948 0.514392 -3.41947 0 2.47228 0 141 137 133 255 0.325292 0.060574 
-4.76388 0.514392 -0.236115 -0 6.08715 0 141 137 133 255 0.325292 0.060574 
-0.236118 0.514392 -0.236115 -0 6.08715 0 141 137 133 255 0.325292 0.060574 
-1.58052 0.514392 -1.58052 -0 6.08715 0 141 137 133 255 0.325292 0.060574 
-4.76388 0.514392 -0.236115 0 2.47231 0 141 137 133 255 0.325292 0.060574 
-1.58052 0.514392 -1.58052 0 2.47231 0 141 137 133 255 0.325292 0.060574 
-3.41948 0.514392 -1.58052 0 2.47231 0 141 137 133 255 0.325292 0.060574 
-1.58052 0.514392 -1.58052 0.604774 0 0 108 105 102 255 0.266344 0.060574 
-1.58052 0.514392 -3.41947 0.604774 0 0 108 105 102 255 0.266344 0.060574 
-1.58052 0.843261 -3.41947 0.604774 0 0 108 105 102 255 0.266344 0.060574 
-1.58052 0.514392 -1.58052 0.604774 -0 0 108 105 102 255 0.266344 0.060574 
-1.58052 0.843261 -3.41947 0.604774 -0 0 108 105 102 255 0.266344 0.060574 
-1.58052 0.843261 -1.58052 0.604774 -0 0 108 105 102 255 0.266344 0.060574 
-1.58052 0.514392 -3.41947 0 0 -0.604777 125 121 118 255 0.296008 0.060574 
-3.41948 0.514392 -3.41947 0 0 -0.604777 125 121 118 255 0.296008 0.060574 
-3.41948 0.843261 -3.41947 0 0 -0.604777 125 121 118 255 0.296008 0.060574 
-1.58052 0.514392 -3.41947 0 0 -0.604777 125 121 118 255 0.296008 0.060574 
-3.41948 0.843261 -3.41947 0 0 -0.604777 125 121 118 255 0.296008 0.060574 
-1.58052 0.843261 -3.41947 0 0 -0.604777 125 121 118 255 0.296008 0.060574 
-3.41948 0.514392 -3.41947 -0.604774 0 0 108 105 102 255 0.266344 0.060574 
-3.41948 0.514392 -1.58052 -0.604774 0 0 108 105 102 255 0.266344 0.060574 
-3.41948 0.843261 -1.58052 -0.604774 0 0 108 105 102 255 0.266344 0.060574 
-3.41948 0.514392 -3.41947 -0.604774 0 0 108 105 102 255 0.266344 0.060574 
-3.41948 0.843261 -1.58052 -0.604774 0 0 108 105 102 255 0.266344 0.060574 
-3.41948 0.843261 -3.41947 -0.604774 0 0 108 105 102 255 0.266344 0.060574 
-3.41948 0.514392 -1.58052 0 0 0.604777 125 121 118 255 0.296008 0.060574 
-1.58052 0.514392 -1.58052 0 0 0.604777 125 121 118 255 0.296008 0.060574 
-1.58052 0.843261 -1.58052 0 0 0.604777 125 121 118 255 0.296008 0.060574 
-3.41948 0.514392 -1.58052 0 0 0.604777 125 121 118 255 0.296008 0.060574 
-1.58052 0.843261 -1.58052 0 0 0.604777 125 121 118 255 0.296008 0.060574 
-3.41948 0.843261 -1.58052 0 0 0.604777 125 121 118 255 0.296008 0.060574 
-1.58052 0.843261 -1.58052 0 0.464096 0 141 137 133 255 0.325292 0.060574 
-1.58052 0.843261 -3.41947 0 0.464096 0 141 137 133 255 0.325292 0.060574 
-1.83289 0.843261 -3.1671 0 0.464096 0 141 137 133 255 0.325292 0.060574 
-1.58052 0.843261 -1.58052 0 0.336715 0 141 137 133 255 0.325292 0.060574 
-1.83289 0.843261 -3.1671 0 0.336715 0 141 137 133 255 0.325292 0.060574 
-1.83289 0.843261 -1.83289 0 0.336715 0 141 137 133 255 0.325292 0.060574 
-1.58052 0.843261 -3.41947 0 0.464099 0 141 137 133 255 0.325292 0.060574 
-3.41948 0.843261 -3.41947 0 0.464099 0 141 137 133 255 0.325292 0.060574 
-3.16711 0.843261 -3.1671 0 0.464099 0 141 137 133 255 0.325292 0.060574 
-1.58052 0.843261 -3.41947 0 0.336717 0 141 137 133 255 0.325292 0.060574 
-3.16711 0.843261 -3.1671 0 0.336717 0 141 137 133 255 0.325292 0.060574 
-1.83289 0.843261 -3.1671 0 0.336717 0 141 137 133 255 0.325292 0.060574 
-3.41948 0.843261 -3.41947 0 0.464096 0 141 137 133 255 0.325292 0.060574 
-3.41948 0.843261 -1.58052 0 0.464096 0 141 137 133 255 0.325292 0.060574 
-3.16711 0.843261 -1.83289 0 0.464096 0 141 137 133 255 0.325292 0.060574 
-3.41948 0.843261 -3.41947 0 0.336715 0 141 137 133 255 0.325292 0.060574 
-3.16711 0.843261 -1.83289 0 0.336715 0 141 137 133 255 0.325292 0.060574 
-3.16711 0.843261 -3.1671 0 0.336715 0 141 137 133 255 0.325292 0.060574 
-3.41948 0.843261 -1.58052 -0 0.464098 0 141 137 133 255 0.325292 0.060574 
-1.58052 0.843261 -1.58052 -0 0.464098 0 141 137 133 255 0.325292 0.060574 
-1.83289 0.843261 -1.83289 -0 0.464098 0 141 137 133 255 0.325292 0.060574 
-3.41948 0.843261 -1.58052 0 0.336717 0 141 137 133 255 0.325292 0.060574 
-1.83289 0.843261 -1.83289 0 0.336717 0 141 137 133 255 0.325292 0.060574 
-3.16711 0.843261 -1.83289 0 0.336717 0 141 137 133 255 0.325292 0.060574 
-1.83289 0.843261 -1.83289 5.04011 0 0 108 105 102 255 0.266344 0.060574 
-1.83289 0.843261 -3.1671 5.04011 0 0 108 105 102 255 0.266344 0.060574 
-1.83289 4.62086 -3.1671 5.04011 0 0 108 105 102 255 0.266344 0.060574 
-1.83289 0.843261 -1.83289 5.04011 -0 0 108 105 102 255 0.266344 0.060574 
-1.83289 4.62086 -3.1671 5.04011 -0 0 108 105 102 255 0.266344 0.060574 
-1.83289 4.62086 -1.83289 5.04011 -0 0 108 105 102 255 0.266344 0.060574 
-1.83289 0.843261 -3.1671 0 0 -5.04015 125 121 118 255 0.296008 0.060574 
-3.16711 0.843261 -3.1671 0 0 -5.04015 125 121 118 255 0.296008 0.060574 
-3.16711 4.62086 -3.1671 0 0 -5.04015 125 121 118 255 0.296008 0.060574 
-1.83289 0.843261 -3.1671 0 0 -5.04015 125 121 118 255 0.296008 0.060574 
-3.16711 4.62086 -3.1671 0 0 -5.04015 125 121 118 255 0.296008 0.060574 
-1.83289 4.62086 -3.1671 0 0 -5.04015 125 121 118 255 0.296008 0.060574 
-3.16711 0.843261 -3.1671 -5.04011 0 0 108 105 102 255 0.266344 0.060574 
-3.16711 0.843261 -1.83289 -5.04011 0 0 108 105 102 255 0.266344 0.060574 
-3.16711 4.62086 -1.83289 -5.04011 0 0 108 105 102 255 0.266344 0.060574 
-3.16711 0.843261 -3.1671 -5.04011 0 0 108 105 102 255 0.266344 0.060574 
-3.16711 4.62086 -1.83289 -5.04011 0 0 108 105 102 255 0.266344 0.060574 
-3.16711 4.62086 -3.1671 -5.04011 0 0 108 105 102 255 0.266344 0.060574 
-3.16711 0.843261 -1.83289 0 0 5.04015 125 121 118 255 0.296008 0.060574 
-1.83289 0.843261 -1.83289 0 0 5.04015 125 121 118 255 0.296008 0.060574 
-1.83289 4.62086 -1.83289 0 0 5.04015 125 121 118 255 0.296008 0.060574 
-3.16711 0.843261 -1.83289 0 0 5.04015 125 121 118 255 0.296008 0.060574 
-1.83289 4.62086 -1.83289 0 0 5.04015 125 121 118 255 0.296008 0.060574 
-3.16711 4.62086 -1.83289 0 0 5.04015 125 121 118 255 0.296008 0.060574 
-1.83289 4.62086 -1.83289 0 -0.347268 0 91 88 86 255 0.236917 0.060856 
-1.83289 4.62086 -3.1671 0 -0.347268 0 91 88 86 255 0.236917 0.060856 
-1.57261 4.62086 -3.42738 0 -0.347268 0 91 88 86 255 0.236917 0.060856 
-1.83289 4.62086 -1.83289 0 -0.48276 0 91 88 86 255 0.236917 0.060856 
-1.57261 4.62086 -3.42738 0 -0.48276 0 91 88 86 255 0.236917 0.060856 
-1.57261 4.62086 -1.57261 0 -0.48276 0 91 88 86 255 0.236917 0.060856 
-1.83289 4.62086 -3.1671 -0 -0.347271 0 91 88 86 255 0.236917 0.060856 
-3.16711 4.62086 -3.1671 -0 -0.347271 0 91 88 86 255 0.236917 0.060856 
-3.42739 4.62086 -3.42738 -0 -0.347271 0 91 88 86 255 0.236917 0.060856 
-1.83289 4.62086 -3.1671 0 -0.482762 -0 91 88 86 255 0.236917 0.060856 
-3.42739 4.62086 -3.42738 0 -0.482762 -0 91 88 86 255 0.236917 0.060856 
-1.57261 4.62086 -3.42738 0 -0.482762 -0 91 88 86 255 0.236917 0.060856 
-3.16711 4.62086 -3.1671 0 -0.347268 0 91 88 86 255 0.236917 0.060856 
-3.16711 4.62086 -1.83289 0 -0.347268 0 91 88 86 255 0.236917 0.060856 
-3.42739 4.62086 -1.57261 0 -0.347268 0 91 88 86 255 0.236917 0.060856 
-3.16711 4.62086 -3.1671 -0 -0.48276 0 91 88 86 255 0.236917 0.060856 
-3.42739 4.62086 -1.57261 -0 -0.48276 0 91 88 86 255 0.236917 0.060856 
-3.42739 4.62086 -3.42738 -0 -0.48276 0 91 88 86 255 0.236917 0.060856 
-3.16711 4.62086 -1.83289 0 -0.347271 0 91 88 86 255 0.236917 0.060856 
-1.83289 4.62086 -1.83289 0 -0.347271 0 91 88 86 255 0.236917 0.060856 
-1.57261 4.62086 -1.57261 0 -0.347271 0 91 88 86 255 0.236917 0.060856 
-3.16711 4.62086 -1.83289 0 -0.482762 0 91 88 86 255 0.236917 0.060856 
-1.57261 4.62086 -1.57261 0 -0.482762 0 91 88 86 255 0.236917 0.060856 
-3.42739 4.62086 -1.57261 0 -0.482762 0 91 88 86 255 0.236917 0.060856 
-1.57261 4.62086 -1.57261 0.703217 0 0 108 105 102 255 0.269359 0.060574 
-1.57261 4.62086 -3.42738 0.703217 0 0 108 105 102 255 0.269359 0.060574 
-1.57261 5 -3.42738 0.703217 0 0 108 105 102 255 0.269359 0.060574 
-1.57261 4.62086 -1.57261 0.703217 -0 0 108 105 102 255 0.269359 0.060574 
-1.57261 5 -3.42738 0.703217 -0 0 108 105 102 255 0.269359 0.060574 
-1.57261 5 -1.57261 0.703217 -0 0 108 105 102 255 0.269359 0.060574 
-1.57261 4.62086 -3.42738 0 0 -0.703221 125 121 118 255 0.296008 0.060574 
-3.42739 4.62086 -3.42738 0 0 -0.703221 125 121 118 255 0.296008 0.060574 
-3.42739 5 -3.42738 0 0 -0.703221 125 121 118 255 0.296008 0.060574 
-1.57261 4.62086 -3.42738 0 0 -0.703221 125 121 118 255 0.296008 0.060574 
-3.42739 5 -3.42738 0 0 -0.703221 125 121 118 255 0.296008 0.060574 
-1.57261 5 -3.42738 0 0 -0.703221 125 121 118 255 0.296008 0.060574 
-3.42739 4.62086 -3.42738 -0.703217 0 0 108 105 102 255 0.269359 0.060574 
-3.42739 4.62086 -1.57261 -0.703217 0 0 108 105 102 255 0.269359 0.060574 
-3.42739 5 -1.57261 -0.703217 0 0 108 105 102 255 0.269359 0.060574 
-3.42739 4.62086 -3.42738 -0.703217 0 0 108 105 102 255 0.269359 0.060574 
-3.42739 5 -1.57261 -0.703217 0 0 108 105 102 255 0.269359 0.060574 
-3.42739 5 -3.42738 -0.703217 0 0 108 105 102 255 0.269359 0.060574 
-3.42739 4.62086 -1.57261 0 0 0.703221 125 121 118 255 0.296008 0.060574 
-1.57261 4.62086 -1.57261 0 0 0.703221 125 121 118 255 0.296008 0.060574 
-1.57261 5 -1.57261 0 0 0.703221 125 121 118 255 0.296008 0.060574 
-3.42739 4.62086 -1.57261 0 0 0.703221 125 121 118 255 0.296008 0.060574 
-1.57261 5 -1.57261 0 0 0.703221 125 121 118 255 0.296008 0.060574 
-3.42739 5 -1.57261 0 0 0.703221 125 121 118 255 0.296008 0.060574 
3 0 1 2
3 3 4 5
3 6 7 8
3 9 10 11
3 12 13 14
3 15 16 17
3 18 19 20
3 21 22 23
3 24 25 26
3 27 28 29
3 30 31 32
3 33 34 35
3 36 37 38
3 39 40 41
3 42 43 44
3 45 46 47
3 48 49 50
3 51 52 53
3 54 55 56
3 57 58 59
3 60 61 62
3 63 64 65
3 66 67 68
3 69 70 71
3 72 73 74
3 75 76 77
3 78 79 80
3 81 82 83
3 84 85 86
3 87 88 89
3 90 91 92
3 93 94 95
3 96 97 98
3 99 100 101
3 102 103 104
3 105 106 107
3 108 109 110
3 111 112 113
3 114 115 116
3 117 118 119
3 120 121 122
3 123 124 125
3 126 127 128
3 129 130 131
3 132 133 134
3 135 136 137
3 138 139 140
3 141 142 143
3 144 145 146
3 147 148 149
3 150 151 152
3 153 154 155
3 156 157 158
3 159 160 161
3 162 163 164
3 165 166 167
3 168 169 170
3 171 172 173
3 174 175 176
3 177 178 179
3 180 181 182
3 183 184 185
3 186 187 188
3 189 190 191
3 192 193 194
3 195 196 197
3 198 199 200
3 201 202 203
3 204 205 206
3 207 208 209
3 210 211 212
3 213 214 215
3 216 217 218
3 219 220 221
