ply
format ascii 1.0
comment Feeney's Flatenator generated
comment TextureFile SpaceInteriors_Texture.png
element vertex 120
property float x
property float y
property float z
property float nx
property float ny
property float nz
property uchar red
property uchar green
property uchar blue
property uchar alpha
property float texture_u
property float texture_v
element face 40
property list uchar int vertex_indices
end_header
-2.41667 0 -2.41667 0 -5.44446 0 157 152 148 255 0.364026 0.063229 
-0.083332 0 -2.41667 0 -5.44446 0 157 152 148 255 0.364026 0.063229 
-0.083332 0 -0.083333 0 -5.44446 0 157 152 148 255 0.364026 0.063229 
-2.41667 0 -2.41667 0 -5.44446 0 157 152 148 255 0.364026 0.063229 
-0.083332 0 -0.083333 0 -5.44446 0 157 152 148 255 0.364026 0.063229 
-2.41667 0 -0.083333 0 -5.44446 0 157 152 148 255 0.364026 0.063229 
-4.91667 0 -2.41667 0 -5.44447 0 157 152 148 255 0.364026 0.063229 
-2.58333 0 -2.41667 0 -5.44447 0 157 152 148 255 0.364026 0.063229 
-2.58333 0 -0.083333 0 -5.44447 0 157 152 148 255 0.364026 0.063229 
-4.91667 0 -2.41667 0 -5.44447 0 157 152 148 255 0.364026 0.063229 
-2.58333 0 -0.083333 0 -5.44447 0 157 152 148 255 0.364026 0.063229 
-4.91667 0 -0.083333 0 -5.44447 0 157 152 148 255 0.364026 0.063229 
-4.91667 0 -4.91667 0 -5.44448 0 157 152 148 255 0.364026 0.063229 
-2.58333 0 -4.91667 0 -5.44448 0 157 152 148 255 0.364026 0.063229 
-2.58333 0 -2.58333 0 -5.44448 0 157 152 148 255 0.364026 0.063229 
-4.91667 0 -4.91667 0 -5.44448 0 157 152 148 255 0.364026 0.063229 
-2.58333 0 -2.58333 0 -5.44448 0 157 152 148 255 0.364026 0.063229 
-4.91667 0 -2.58333 0 -5.44448 0 157 152 148 255 0.364026 0.063229 
-2.41667 0 -4.91667 0 -5.44447 0 157 152 148 255 0.364026 0.063229 
-0.083332 0 -4.91667 0 -5.44447 0 157 152 148 255 0.364026 0.063229 
-0.083332 0 -2.58333 0 -5.44447 0 157 152 148 255 0.364026 0.063229 
-2.41667 0 -4.91667 0 -5.44447 0 157 152 148 255 0.364026 0.063229 
-0.083332 0 -2.58333 0 -5.44447 0 157 152 148 255 0.364026 0.063229 
-2.41667 0 -2.58333 0 -5.44447 0 157 152 148 255 0.364026 0.063229 
-2.5 0 -2.5 0 -0.208325 0 141 137 133 255 0.327371 0.062481 
0 0 -2.5 0 -0.208325 0 141 137 133 255 0.327371 0.062481 
-0.083332 0 -2.41667 0 -0.208325 0 141 137 133 255 0.327371 0.062481 
-2.5 0 -2.5 0 -0.194437 0 141 137 133 255 0.327371 0.062481 
-0.083332 0 -2.41667 0 -0.194437 0 141 137 133 255 0.327371 0.062481 
-2.41667 0 -2.41667 0 -0.194437 0 141 137 133 255 0.327371 0.062481 
0 0 -2.5 0 -0.20833 0 141 137 133 255 0.327371 0.062481 
0 0 0 0 -0.20833 0 141 137 133 255 0.327371 0.062481 
-0.083332 0 -0.083333 0 -0.20833 0 141 137 133 255 0.327371 0.062481 
0 0 -2.5 0 -0.194442 0 141 137 133 255 0.327371 0.062481 
-0.083332 0 -0.083333 0 -0.194442 0 141 137 133 255 0.327371 0.062481 
-0.083332 0 -2.41667 0 -0.194442 0 141 137 133 255 0.327371 0.062481 
0 0 0 -0 -0.208333 0 141 137 133 255 0.327371 0.062481 
-2.5 0 0 -0 -0.208333 0 141 137 133 255 0.327371 0.062481 
-2.41667 0 -0.083333 -0 -0.208333 0 141 137 133 255 0.327371 0.062481 
0 0 0 0 -0.194444 0 141 137 133 255 0.327371 0.062481 
-2.41667 0 -0.083333 0 -0.194444 0 141 137 133 255 0.327371 0.062481 
-0.083332 0 -0.083333 0 -0.194444 0 141 137 133 255 0.327371 0.062481 
-2.5 0 0 0 -0.208325 0 141 137 133 255 0.327371 0.062481 
-2.5 0 -2.5 0 -0.208325 0 141 137 133 255 0.327371 0.062481 
-2.41667 0 -2.41667 0 -0.208325 0 141 137 133 255 0.327371 0.062481 
-2.5 0 0 0 -0.194437 0 141 137 133 255 0.327371 0.062481 
-2.41667 0 -2.41667 0 -0.194437 0 141 137 133 255 0.327371 0.062481 
-2.41667 0 -0.083333 0 -0.194437 0 141 137 133 255 0.327371 0.062481 
-5 0 -2.5 0 -0.208325 0 141 137 133 255 0.327371 0.062481 
-2.5 0 -2.5 0 -0.208325 0 141 137 133 255 0.327371 0.062481 
-2.58333 0 -2.41667 0 -0.208325 0 141 137 133 255 0.327371 0.062481 
-5 0 -2.5 0 -0.194437 0 141 137 133 255 0.327371 0.062481 
-2.58333 0 -2.41667 0 -0.194437 0 141 137 133 255 0.327371 0.062481 
-4.91667 0 -2.41667 0 -0.194437 0 141 137 133 255 0.327371 0.062481 
-2.5 0 -2.5 0 -0.208325 0 141 137 133 255 0.327371 0.062481 
-2.5 0 0 0 -0.208325 0 141 137 133 255 0.327371 0.062481 
-2.58333 0 -0.083333 0 -0.208325 0 141 137 133 255 0.327371 0.062481 
-2.5 0 -2.5 0 -0.194437 0 141 137 133 255 0.327371 0.062481 
-2.58333 0 -0.083333 0 -0.194437 0 141 137 133 255 0.327371 0.062481 
-2.58333 0 -2.41667 0 -0.194437 0 141 137 133 255 0.327371 0.062481 
-2.5 0 0 -0 -0.208333 0 141 137 133 255 0.327371 0.062481 
-5 0 0 -0 -0.208333 0 141 137 133 255 0.327371 0.062481 
-4.91667 0 -0.083333 -0 -0.208333 0 141 137 133 255 0.327371 0.062481 
-2.5 0 0 0 -0.194444 0 141 137 133 255 0.327371 0.062481 
-4.91667 0 -0.083333 0 -0.194444 0 141 137 133 255 0.327371 0.062481 
-2.58333 0 -0.083333 0 -0.194444 0 141 137 133 255 0.327371 0.062481 
-5 0 0 0 -0.208325 0 141 137 133 255 0.327371 0.062481 
-5 0 -2.5 0 -0.208325 0 141 137 133 255 0.327371 0.062481 
-4.91667 0 -2.41667 0 -0.208325 0 141 137 133 255 0.327371 0.062481 
-5 0 0 0 -0.194437 0 141 137 133 255 0.327371 0.062481 
-4.91667 0 -2.41667 0 -0.194437 0 141 137 133 255 0.327371 0.062481 
-4.91667 0 -0.083333 0 -0.194437 0 141 137 133 255 0.327371 0.062481 
-5 0 -5 0 -0.208325 0 141 137 133 255 0.327371 0.062481 
-2.5 0 -5 0 -0.208325 0 141 137 133 255 0.327371 0.062481 
-2.58333 0 -4.91667 0 -0.208325 0 141 137 133 255 0.327371 0.062481 
-5 0 -5 0 -0.194438 0 141 137 133 255 0.327371 0.062481 
-2.58333 0 -4.91667 0 -0.194438 0 141 137 133 255 0.327371 0.062481 
-4.91667 0 -4.91667 0 -0.194438 0 141 137 133 255 0.327371 0.062481 
-2.5 0 -5 0 -0.208325 0 141 137 133 255 0.327371 0.062481 
-2.5 0 -2.5 0 -0.208325 0 141 137 133 255 0.327371 0.062481 
-2.58333 0 -2.58333 0 -0.208325 0 141 137 133 255 0.327371 0.062481 
-2.5 0 -5 0 -0.194437 0 141 137 133 255 0.327371 0.062481 
-2.58333 0 -2.58333 0 -0.194437 0 141 137 133 255 0.327371 0.062481 
-2.58333 0 -4.91667 0 -0.194437 0 141 137 133 255 0.327371 0.062481 
-2.5 0 -2.5 -0 -0.208325 0 141 137 133 255 0.327371 0.062481 
-5 0 -2.5 -0 -0.208325 0 141 137 133 255 0.327371 0.062481 
-4.91667 0 -2.58333 -0 -0.208325 0 141 137 133 255 0.327371 0.062481 
-2.5 0 -2.5 0 -0.194437 0 141 137 133 255 0.327371 0.062481 
-4.91667 0 -2.58333 0 -0.194437 0 141 137 133 255 0.327371 0.062481 
-2.58333 0 -2.58333 0 -0.194437 0 141 137 133 255 0.327371 0.062481 
-5 0 -2.5 0 -0.208325 0 141 137 133 255 0.327371 0.062481 
-5 0 -5 0 -0.208325 0 141 137 133 255 0.327371 0.062481 
-4.91667 0 -4.91667 0 -0.208325 0 141 137 133 255 0.327371 0.062481 
-5 0 -2.5 0 -0.194438 0 141 137 133 255 0.327371 0.062481 
-4.91667 0 -4.91667 0 -0.194438 0 141 137 133 255 0.327371 0.062481 
-4.91667 0 -2.58333 0 -0.194438 0 141 137 133 255 0.327371 0.062481 
-2.5 0 -5 0 -0.208325 0 141 137 133 255 0.327371 0.062481 
0 0 -5 0 -0.208325 0 141 137 133 255 0.327371 0.062481 
-0.083332 0 -4.91667 0 -0.208325 0 141 137 133 255 0.327371 0.062481 
-2.5 0 -5 0 -0.194437 0 141 137 133 255 0.327371 0.062481 
-0.083332 0 -4.91667 0 -0.194437 0 141 137 133 255 0.327371 0.062481 
-2.41667 0 -4.91667 0 -0.194437 0 141 137 133 255 0.327371 0.062481 
0 0 -5 0 -0.20833 0 141 137 133 255 0.327371 0.062481 
0 0 -2.5 0 -0.20833 0 141 137 133 255 0.327371 0.062481 
-0.083332 0 -2.58333 0 -0.20833 0 141 137 133 255 0.327371 0.062481 
0 0 -5 0 -0.194442 0 141 137 133 255 0.327371 0.062481 
-0.083332 0 -2.58333 0 -0.194442 0 141 137 133 255 0.327371 0.062481 
-0.083332 0 -4.91667 0 -0.194442 0 141 137 133 255 0.327371 0.062481 
0 0 -2.5 -0 -0.208325 0 141 137 133 255 0.327371 0.062481 
-2.5 0 -2.5 -0 -0.208325 0 141 137 133 255 0.327371 0.062481 
-2.41667 0 -2.58333 -0 -0.208325 0 141 137 133 255 0.327371 0.062481 
0 0 -2.5 0 -0.194437 0 141 137 133 255 0.327371 0.062481 
-2.41667 0 -2.58333 0 -0.194437 0 141 137 133 255 0.327371 0.062481 
-0.083332 0 -2.58333 0 -0.194437 0 141 137 133 255 0.327371 0.062481 
-2.5 0 -2.5 0 -0.208325 0 141 137 133 255 0.327371 0.062481 
-2.5 0 -5 0 -0.208325 0 141 137 133 255 0.327371 0.062481 
-2.41667 0 -4.91667 0 -0.208325 0 141 137 133 255 0.327371 0.062481 
-2.5 0 -2.5 0 -0.194437 0 141 137 133 255 0.327371 0.062481 
-2.41667 0 -4.91667 0 -0.194437 0 141 137 133 255 0.327371 0.062481 
-2.41667 0 -2.58333 0 -0.194437 0 141 137 133 255 0.327371 0.062481 
3 0 1 2
3 3 4 5
3 6 7 8
3 9 10 11
3 12 13 14
3 15 16 17
3 18 19 20
3 21 22 23
3 24 25 26
3 27 28 29
3 30 31 32
3 33 34 35
3 36 37 38
3 39 40 41
3 42 43 44
3 45 46 47
3 48 49 50
3 51 52 53
3 54 55 56
3 57 58 59
3 60 61 62
3 63 64 65
3 66 67 68
3 69 70 71
3 72 73 74
3 75 76 77
3 78 79 80
3 81 82 83
3 84 85 86
3 87 88 89
3 90 91 92
3 93 94 95
3 96 97 98
3 99 100 101
3 102 103 104
3 105 106 107
3 108 109 110
3 111 112 113
3 114 115 116
3 117 118 119
