ply
format ascii 1.0
comment Feeney's Flatenator generated
comment TextureFile SpaceInteriors_Texture.png
element vertex 204
property float x
property float y
property float z
property float nx
property float ny
property float nz
property uchar red
property uchar green
property uchar blue
property uchar alpha
property float texture_u
property float texture_v
element face 68
property list uchar int vertex_indices
end_header
-0.040665 0.2012 -0.268201 -0.0387118 0 0 127 127 127 255 0.268088 0.472585 
-0.040665 0.2012 -0.186876 -0.0387118 0 0 127 127 127 255 0.268088 0.472585 
-0.040665 0.677214 -0.186876 -0.0387118 0 0 127 127 127 255 0.268088 0.472585 
-0.040665 0.2012 -0.268201 -0.0427503 0 0 127 127 127 255 0.268088 0.472585 
-0.040665 0.677214 -0.186876 -0.0427503 0 0 127 127 127 255 0.268088 0.472585 
-0.040665 0.726872 -0.268201 -0.0427503 0 0 127 127 127 255 0.268088 0.472585 
-0.032532 1.16986 0.321442 0 0.00299548 0.00395264 69 69 69 255 0.17865 0.475874 
-0.032532 1.10911 0.367481 0 0.00299548 0.00395264 69 69 69 255 0.17865 0.475874 
0.032532 1.10911 0.367481 0 0.00299548 0.00395264 69 69 69 255 0.17865 0.475874 
-0.032532 1.16986 0.321442 -0 0.00299548 0.00395264 69 69 69 255 0.17865 0.475874 
0.032532 1.10911 0.367481 -0 0.00299548 0.00395264 69 69 69 255 0.17865 0.475874 
0.032532 1.16986 0.321442 -0 0.00299548 0.00395264 69 69 69 255 0.17865 0.475874 
0.040665 0.726872 -0.268201 0.0387118 0 0 127 127 127 255 0.268088 0.472585 
0.040665 0.677214 -0.186876 0.0387118 0 0 127 127 127 255 0.268088 0.472585 
0.040665 0.2012 -0.186876 0.0387118 0 0 127 127 127 255 0.268088 0.472585 
0.040665 0.726872 -0.268201 0.0427503 0 0 127 127 127 255 0.268088 0.472585 
0.040665 0.2012 -0.186876 0.0427503 0 0 127 127 127 255 0.268088 0.472585 
0.040665 0.2012 -0.268201 0.0427503 0 0 127 127 127 255 0.268088 0.472585 
-0.040665 0.2012 -0.186876 0 0 0.0387142 147 147 147 255 0.301157 0.471973 
0.040665 0.2012 -0.186876 0 0 0.0387142 147 147 147 255 0.301157 0.471973 
0.040665 0.677214 -0.186876 0 0 0.0387142 147 147 147 255 0.301157 0.471973 
-0.040665 0.2012 -0.186876 0 0 0.0387142 147 147 147 255 0.301157 0.471973 
0.040665 0.677214 -0.186876 0 0 0.0387142 147 147 147 255 0.301157 0.471973 
-0.040665 0.677214 -0.186876 0 0 0.0387142 147 147 147 255 0.301157 0.471973 
0.040665 0.2012 -0.268201 0 0 -0.0427529 147 147 147 255 0.301157 0.471973 
-0.040665 0.2012 -0.268201 0 0 -0.0427529 147 147 147 255 0.301157 0.471973 
-0.040665 0.726872 -0.268201 0 0 -0.0427529 147 147 147 255 0.301157 0.471973 
0.040665 0.2012 -0.268201 0 0 -0.0427529 147 147 147 255 0.301157 0.471973 
-0.040665 0.726872 -0.268201 0 0 -0.0427529 147 147 147 255 0.301157 0.471973 
0.040665 0.726872 -0.268201 0 0 -0.0427529 147 147 147 255 0.301157 0.471973 
-0.040665 0.726872 -0.268201 -0.0397208 0 0 127 127 127 255 0.268088 0.472585 
-0.040665 0.677214 -0.186876 -0.0397208 0 0 127 127 127 255 0.268088 0.472585 
-0.040665 0.947626 0.170157 -0.0397208 0 0 127 127 127 255 0.268088 0.472585 
-0.040665 0.726872 -0.268201 -0.0459959 0 0 127 127 127 255 0.268088 0.472585 
-0.040665 0.947626 0.170157 -0.0459959 0 0 127 127 127 255 0.268088 0.472585 
-0.040665 1.02357 0.112603 -0.0459959 0 0 127 127 127 255 0.268088 0.472585 
-0.040665 0.677214 -0.186876 0 -0.0290375 0.0219926 107 107 107 255 0.238081 0.475647 
0.040665 0.677214 -0.186876 0 -0.0290375 0.0219926 107 107 107 255 0.238081 0.475647 
0.040665 0.947626 0.170157 0 -0.0290375 0.0219926 107 107 107 255 0.238081 0.475647 
-0.040665 0.677214 -0.186876 0 -0.0290375 0.0219926 107 107 107 255 0.238081 0.475647 
0.040665 0.947626 0.170157 0 -0.0290375 0.0219926 107 107 107 255 0.238081 0.475647 
-0.040665 0.947626 0.170157 0 -0.0290375 0.0219926 107 107 107 255 0.238081 0.475647 
0.040665 0.677214 -0.186876 0.0430389 -0 0 127 127 127 255 0.268088 0.472585 
0.040665 0.726872 -0.268201 0.0430389 -0 0 127 127 127 255 0.268088 0.472585 
0.040665 1.02357 0.112603 0.0430389 -0 0 127 127 127 255 0.268088 0.472585 
0.040665 0.677214 -0.186876 0.0426778 0 0 127 127 127 255 0.268088 0.472585 
0.040665 1.02357 0.112603 0.0426778 0 0 127 127 127 255 0.268088 0.472585 
0.040665 0.947626 0.170157 0.0426778 0 0 127 127 127 255 0.268088 0.472585 
0.040665 0.726872 -0.268201 0 0.0309708 -0.0241304 166 166 166 255 0.326877 0.474422 
-0.040665 0.726872 -0.268201 0 0.0309708 -0.0241304 166 166 166 255 0.326877 0.474422 
-0.040665 1.02357 0.112603 0 0.0309708 -0.0241304 166 166 166 255 0.326877 0.474422 
0.040665 0.726872 -0.268201 0 0.0309708 -0.0241304 166 166 166 255 0.326877 0.474422 
-0.040665 1.02357 0.112603 0 0.0309708 -0.0241304 166 166 166 255 0.326877 0.474422 
0.040665 1.02357 0.112603 0 0.0309708 -0.0241304 166 166 166 255 0.326877 0.474422 
-0.040665 1.02357 0.112603 -0.0210092 -0.000779799 -0.00102896 203 203 203 255 0.382301 0.474313 
-0.040665 0.947626 0.170157 -0.0210092 -0.000779799 -0.00102896 203 203 203 255 0.382301 0.474313 
-0.054214 1.06813 0.355474 -0.0210092 -0.000779799 -0.00102896 203 203 203 255 0.382301 0.474313 
-0.040665 1.02357 0.112603 -0.0280122 -0.00103963 -0.00137197 203 203 203 255 0.382301 0.474313 
-0.054214 1.06813 0.355474 -0.0280122 -0.00103963 -0.00137197 203 203 203 255 0.382301 0.474313 
-0.054214 1.16939 0.278743 -0.0280122 -0.00103963 -0.00137197 203 203 203 255 0.382301 0.474313 
-0.040665 0.947626 0.170157 0 -0.0150718 0.00980059 166 166 166 255 0.319226 0.477988 
0.040665 0.947626 0.170157 0 -0.0150718 0.00980059 166 166 166 255 0.319226 0.477988 
0.054214 1.06813 0.355474 0 -0.0150718 0.00980059 166 166 166 255 0.319226 0.477988 
-0.040665 0.947626 0.170157 0 -0.0200936 0.013066 166 166 166 255 0.319226 0.477988 
0.054214 1.06813 0.355474 0 -0.0200936 0.013066 166 166 166 255 0.319226 0.477988 
-0.054214 1.06813 0.355474 0 -0.0200936 0.013066 166 166 166 255 0.319226 0.477988 
0.040665 0.947626 0.170157 0.0210099 -0.000779799 -0.00102896 203 203 203 255 0.382301 0.474313 
0.040665 1.02357 0.112603 0.0210099 -0.000779799 -0.00102896 203 203 203 255 0.382301 0.474313 
0.054214 1.16939 0.278743 0.0210099 -0.000779799 -0.00102896 203 203 203 255 0.382301 0.474313 
0.040665 0.947626 0.170157 0.0280116 -0.00103963 -0.00137197 203 203 203 255 0.382301 0.474313 
0.054214 1.16939 0.278743 0.0280116 -0.00103963 -0.00137197 203 203 203 255 0.382301 0.474313 
0.054214 1.06813 0.355474 0.0280116 -0.00103963 -0.00137197 203 203 203 255 0.382301 0.474313 
0.040665 1.02357 0.112603 0 0.0135122 -0.0118595 219 219 219 255 0.42823 0.476763 
-0.040665 1.02357 0.112603 0 0.0135122 -0.0118595 219 219 219 255 0.42823 0.476763 
-0.054214 1.16939 0.278743 0 0.0135122 -0.0118595 219 219 219 255 0.42823 0.476763 
0.040665 1.02357 0.112603 0 0.0180142 -0.015811 219 219 219 255 0.42823 0.476763 
-0.054214 1.16939 0.278743 0 0.0180142 -0.015811 219 219 219 255 0.42823 0.476763 
0.054214 1.16939 0.278743 0 0.0180142 -0.015811 219 219 219 255 0.42823 0.476763 
-0.054214 1.16939 0.278743 -0.00436026 0.00166368 0.00219552 69 69 69 255 0.17865 0.475874 
-0.054214 1.06813 0.355474 -0.00436026 0.00166368 0.00219552 69 69 69 255 0.17865 0.475874 
-0.032532 1.10911 0.367481 -0.00436026 0.00166368 0.00219552 69 69 69 255 0.17865 0.475874 
-0.054214 1.16939 0.278743 -0.00261561 0.000998217 0.00131718 69 69 69 255 0.17865 0.475874 
-0.032532 1.10911 0.367481 -0.00261561 0.000998217 0.00131718 69 69 69 255 0.17865 0.475874 
-0.032532 1.16986 0.321442 -0.00261561 0.000998217 0.00131718 69 69 69 255 0.17865 0.475874 
-0.054214 1.06813 0.355474 0 -0.00130189 0.00444338 35 35 35 255 0.115574 0.479548 
0.054214 1.06813 0.355474 0 -0.00130189 0.00444338 35 35 35 255 0.115574 0.479548 
0.032532 1.10911 0.367481 0 -0.00130189 0.00444338 35 35 35 255 0.115574 0.479548 
-0.054214 1.06813 0.355474 0 -0.000781223 0.00266632 35 35 35 255 0.115574 0.479548 
0.032532 1.10911 0.367481 0 -0.000781223 0.00266632 35 35 35 255 0.115574 0.479548 
-0.032532 1.10911 0.367481 0 -0.000781223 0.00266632 35 35 35 255 0.115574 0.479548 
0.054214 1.06813 0.355474 0.00435977 0.00166368 0.00219552 69 69 69 255 0.17865 0.475874 
0.054214 1.16939 0.278743 0.00435977 0.00166368 0.00219552 69 69 69 255 0.17865 0.475874 
0.032532 1.16986 0.321442 0.00435977 0.00166368 0.00219552 69 69 69 255 0.17865 0.475874 
0.054214 1.06813 0.355474 0.0026161 0.000998217 0.00131718 69 69 69 255 0.17865 0.475874 
0.032532 1.16986 0.321442 0.0026161 0.000998217 0.00131718 69 69 69 255 0.17865 0.475874 
0.032532 1.10911 0.367481 0.0026161 0.000998217 0.00131718 69 69 69 255 0.17865 0.475874 
0.054214 1.16939 0.278743 0 0.00462977 -5.09657e-05 88 88 88 255 0.20437 0.478323 
-0.054214 1.16939 0.278743 0 0.00462977 -5.09657e-05 88 88 88 255 0.20437 0.478323 
-0.032532 1.16986 0.321442 0 0.00462977 -5.09657e-05 88 88 88 255 0.20437 0.478323 
0.054214 1.16939 0.278743 0 0.00277817 -3.05828e-05 88 88 88 255 0.20437 0.478323 
-0.032532 1.16986 0.321442 0 0.00277817 -3.05828e-05 88 88 88 255 0.20437 0.478323 
0.032532 1.16986 0.321442 0 0.00277817 -3.05828e-05 88 88 88 255 0.20437 0.478323 
-0.040665 0.2012 -0.186876 0 0.00307376 0 218 215 187 255 0.390186 0.443498 
-0.040665 0.2012 -0.268201 0 0.00307376 0 218 215 187 255 0.390186 0.443498 
-0.078461 0.2012 -0.305997 0 0.00307376 0 218 215 187 255 0.390186 0.443498 
-0.040665 0.2012 -0.186876 0 0.00593095 0 218 215 187 255 0.390186 0.443498 
-0.078461 0.2012 -0.305997 0 0.00593095 0 218 215 187 255 0.390186 0.443498 
-0.078461 0.2012 -0.149077 0 0.00593095 0 218 215 187 255 0.390186 0.443498 
0.040665 0.2012 -0.268201 0 0.00307376 0 218 215 187 255 0.390186 0.443498 
0.040665 0.2012 -0.186876 0 0.00307376 0 218 215 187 255 0.390186 0.443498 
0.078461 0.2012 -0.149077 0 0.00307376 0 218 215 187 255 0.390186 0.443498 
0.040665 0.2012 -0.268201 -0 0.00593095 0 218 215 187 255 0.390186 0.443498 
0.078461 0.2012 -0.149077 -0 0.00593095 0 218 215 187 255 0.390186 0.443498 
0.078461 0.2012 -0.305997 -0 0.00593095 0 218 215 187 255 0.390186 0.443498 
-0.040665 0.2012 -0.268201 -0 0.00307395 0 218 215 187 255 0.390186 0.443498 
0.040665 0.2012 -0.268201 -0 0.00307395 0 218 215 187 255 0.390186 0.443498 
0.078461 0.2012 -0.305997 -0 0.00307395 0 218 215 187 255 0.390186 0.443498 
-0.040665 0.2012 -0.268201 0 0.00593103 0 218 215 187 255 0.390186 0.443498 
0.078461 0.2012 -0.305997 0 0.00593103 0 218 215 187 255 0.390186 0.443498 
-0.078461 0.2012 -0.305997 0 0.00593103 0 218 215 187 255 0.390186 0.443498 
0.040665 0.2012 -0.186876 0 0.00307419 0 218 215 187 255 0.390186 0.443498 
-0.040665 0.2012 -0.186876 0 0.00307419 0 218 215 187 255 0.390186 0.443498 
-0.078461 0.2012 -0.149077 0 0.00307419 0 218 215 187 255 0.390186 0.443498 
0.040665 0.2012 -0.186876 0 0.00593149 -0 218 215 187 255 0.390186 0.443498 
-0.078461 0.2012 -0.149077 0 0.00593149 -0 218 215 187 255 0.390186 0.443498 
0.078461 0.2012 -0.149077 0 0.00593149 -0 218 215 187 255 0.390186 0.443498 
-0.078461 0.2012 -0.149077 -0.0113897 0 -0 198 197 167 255 0.328948 0.448397 
-0.078461 0.2012 -0.305997 -0.0113897 0 -0 198 197 167 255 0.328948 0.448397 
-0.078461 0.128617 -0.305997 -0.0113897 0 -0 198 197 167 255 0.328948 0.448397 
-0.078461 0.2012 -0.149077 -0.0113897 -0 0 198 197 167 255 0.328948 0.448397 
-0.078461 0.128617 -0.305997 -0.0113897 -0 0 198 197 167 255 0.328948 0.448397 
-0.078461 0.128617 -0.149077 -0.0113897 -0 0 198 197 167 255 0.328948 0.448397 
0.078461 0.2012 -0.305997 0.0113897 0 -0 198 197 167 255 0.328948 0.448397 
0.078461 0.2012 -0.149077 0.0113897 0 -0 198 197 167 255 0.328948 0.448397 
0.078461 0.128617 -0.149077 0.0113897 0 -0 198 197 167 255 0.328948 0.448397 
0.078461 0.2012 -0.305997 0.0113897 0 0 198 197 167 255 0.328948 0.448397 
0.078461 0.128617 -0.149077 0.0113897 0 0 198 197 167 255 0.328948 0.448397 
0.078461 0.128617 -0.305997 0.0113897 0 0 198 197 167 255 0.328948 0.448397 
-0.078461 0.2012 -0.305997 0 0 -0.0113899 208 206 177 255 0.362016 0.447785 
0.078461 0.2012 -0.305997 0 0 -0.0113899 208 206 177 255 0.362016 0.447785 
0.078461 0.128617 -0.305997 0 0 -0.0113899 208 206 177 255 0.362016 0.447785 
-0.078461 0.2012 -0.305997 0 0 -0.0113899 208 206 177 255 0.362016 0.447785 
0.078461 0.128617 -0.305997 0 0 -0.0113899 208 206 177 255 0.362016 0.447785 
-0.078461 0.128617 -0.305997 0 0 -0.0113899 208 206 177 255 0.362016 0.447785 
0.078461 0.2012 -0.149077 0 0 0.0113899 208 206 177 255 0.362016 0.447785 
-0.078461 0.2012 -0.149077 0 0 0.0113899 208 206 177 255 0.362016 0.447785 
-0.078461 0.128617 -0.149077 0 0 0.0113899 208 206 177 255 0.362016 0.447785 
0.078461 0.2012 -0.149077 0 0 0.0113899 208 206 177 255 0.362016 0.447785 
-0.078461 0.128617 -0.149077 0 0 0.0113899 208 206 177 255 0.362016 0.447785 
0.078461 0.128617 -0.149077 0 0 0.0113899 208 206 177 255 0.362016 0.447785 
-0.257637 0 -0.367481 -0.0650707 0 0 198 197 167 255 0.325046 0.446057 
-0.257637 0 0.138445 -0.0650707 0 0 198 197 167 255 0.325046 0.446057 
-0.257637 0.128617 0.138445 -0.0650707 0 0 198 197 167 255 0.325046 0.446057 
-0.257637 0 -0.367481 -0.0650707 0 0 198 197 167 255 0.325046 0.446057 
-0.257637 0.128617 0.138445 -0.0650707 0 0 198 197 167 255 0.325046 0.446057 
-0.257637 0.128617 -0.367481 -0.0650707 0 0 198 197 167 255 0.325046 0.446057 
-0.132164 0.128617 -0.077854 0 0.0397676 0 234 231 206 255 0.485298 0.444664 
-0.132164 0.128617 0.072594 0 0.0397676 0 234 231 206 255 0.485298 0.444664 
0.132164 0.128617 0.072594 0 0.0397676 0 234 231 206 255 0.485298 0.444664 
-0.132164 0.128617 -0.077854 0 0.0397676 0 234 231 206 255 0.485298 0.444664 
0.132164 0.128617 0.072594 0 0.0397676 0 234 231 206 255 0.485298 0.444664 
0.132164 0.128617 -0.077854 0 0.0397676 0 234 231 206 255 0.485298 0.444664 
0.257637 0.128617 -0.367481 0.0650707 0 -0 198 197 167 255 0.325046 0.446057 
0.257637 0.128617 0.138445 0.0650707 0 -0 198 197 167 255 0.325046 0.446057 
0.257637 0 0.138445 0.0650707 0 -0 198 197 167 255 0.325046 0.446057 
0.257637 0.128617 -0.367481 0.0650707 0 0 198 197 167 255 0.325046 0.446057 
0.257637 0 0.138445 0.0650707 0 0 198 197 167 255 0.325046 0.446057 
0.257637 0 -0.367481 0.0650707 0 0 198 197 167 255 0.325046 0.446057 
-0.257637 0 0.138445 0 0 0.066273 208 206 177 255 0.358115 0.445444 
0.257637 0 0.138445 0 0 0.066273 208 206 177 255 0.358115 0.445444 
0.257637 0.128617 0.138445 0 0 0.066273 208 206 177 255 0.358115 0.445444 
-0.257637 0 0.138445 0 0 0.066273 208 206 177 255 0.358115 0.445444 
0.257637 0.128617 0.138445 0 0 0.066273 208 206 177 255 0.358115 0.445444 
-0.257637 0.128617 0.138445 0 0 0.066273 208 206 177 255 0.358115 0.445444 
0.257637 0 -0.367481 0 0 -0.066273 208 206 177 255 0.358115 0.445444 
-0.257637 0 -0.367481 0 0 -0.066273 208 206 177 255 0.358115 0.445444 
-0.257637 0.128617 -0.367481 0 0 -0.066273 208 206 177 255 0.358115 0.445444 
0.257637 0 -0.367481 0 0 -0.066273 208 206 177 255 0.358115 0.445444 
-0.257637 0.128617 -0.367481 0 0 -0.066273 208 206 177 255 0.358115 0.445444 
0.257637 0.128617 -0.367481 0 0 -0.066273 208 206 177 255 0.358115 0.445444 
-0.257637 0.128617 -0.367481 0 0.06348 0 218 215 187 255 0.386285 0.441157 
-0.257637 0.128617 0.138445 0 0.06348 0 218 215 187 255 0.386285 0.441157 
-0.132164 0.128617 0.072594 0 0.06348 0 218 215 187 255 0.386285 0.441157 
-0.257637 0.128617 -0.367481 0 0.0188772 0 218 215 187 255 0.386285 0.441157 
-0.132164 0.128617 0.072594 0 0.0188772 0 218 215 187 255 0.386285 0.441157 
-0.132164 0.128617 -0.077854 0 0.0188772 0 218 215 187 255 0.386285 0.441157 
-0.257637 0.128617 0.138445 -0 0.0339313 0 218 215 187 255 0.386285 0.441157 
0.257637 0.128617 0.138445 -0 0.0339313 0 218 215 187 255 0.386285 0.441157 
0.132164 0.128617 0.072594 -0 0.0339313 0 218 215 187 255 0.386285 0.441157 
-0.257637 0.128617 0.138445 0 0.0174063 0 218 215 187 255 0.386285 0.441157 
0.132164 0.128617 0.072594 0 0.0174063 0 218 215 187 255 0.386285 0.441157 
-0.132164 0.128617 0.072594 0 0.0174063 0 218 215 187 255 0.386285 0.441157 
0.257637 0.128617 0.138445 0 0.06348 0 218 215 187 255 0.386285 0.441157 
0.257637 0.128617 -0.367481 0 0.06348 0 218 215 187 255 0.386285 0.441157 
0.132164 0.128617 -0.077854 0 0.06348 0 218 215 187 255 0.386285 0.441157 
0.257637 0.128617 0.138445 0 0.0188772 0 218 215 187 255 0.386285 0.441157 
0.132164 0.128617 -0.077854 0 0.0188772 0 218 215 187 255 0.386285 0.441157 
0.132164 0.128617 0.072594 0 0.0188772 0 218 215 187 255 0.386285 0.441157 
0.257637 0.128617 -0.367481 0 0.149237 0 218 215 187 255 0.386285 0.441157 
-0.257637 0.128617 -0.367481 0 0.149237 0 218 215 187 255 0.386285 0.441157 
-0.132164 0.128617 -0.077854 0 0.149237 0 218 215 187 255 0.386285 0.441157 
0.257637 0.128617 -0.367481 0 0.0765565 0 218 215 187 255 0.386285 0.441157 
-0.132164 0.128617 -0.077854 0 0.0765565 0 218 215 187 255 0.386285 0.441157 
0.132164 0.128617 -0.077854 0 0.0765565 0 218 215 187 255 0.386285 0.441157 
3 0 1 2
3 3 4 5
3 6 7 8
3 9 10 11
3 12 13 14
3 15 16 17
3 18 19 20
3 21 22 23
3 24 25 26
3 27 28 29
3 30 31 32
3 33 34 35
3 36 37 38
3 39 40 41
3 42 43 44
3 45 46 47
3 48 49 50
3 51 52 53
3 54 55 56
3 57 58 59
3 60 61 62
3 63 64 65
3 66 67 68
3 69 70 71
3 72 73 74
3 75 76 77
3 78 79 80
3 81 82 83
3 84 85 86
3 87 88 89
3 90 91 92
3 93 94 95
3 96 97 98
3 99 100 101
3 102 103 104
3 105 106 107
3 108 109 110
3 111 112 113
3 114 115 116
3 117 118 119
3 120 121 122
3 123 124 125
3 126 127 128
3 129 130 131
3 132 133 134
3 135 136 137
3 138 139 140
3 141 142 143
3 144 145 146
3 147 148 149
3 150 151 152
3 153 154 155
3 156 157 158
3 159 160 161
3 162 163 164
3 165 166 167
3 168 169 170
3 171 172 173
3 174 175 176
3 177 178 179
3 180 181 182
3 183 184 185
3 186 187 188
3 189 190 191
3 192 193 194
3 195 196 197
3 198 199 200
3 201 202 203
