ply
format ascii 1.0
comment Feeney's Flatenator generated
comment TextureFile SpaceInteriors_Texture.png
element vertex 306
property float x
property float y
property float z
property float nx
property float ny
property float nz
property uchar red
property uchar green
property uchar blue
property uchar alpha
property float texture_u
property float texture_v
element face 102
property list uchar int vertex_indices
end_header
1.2981 1.1279 0.079574 0 -0.048698 0.00535019 58 57 55 255 0.174411 0.061667 
1.41393 1.1279 0.079574 0 -0.048698 0.00535019 58 57 55 255 0.174411 0.061667 
1.47862 1.17409 0.5 0 -0.048698 0.00535019 58 57 55 255 0.174411 0.061667 
1.2981 1.1279 0.079574 0 -0.103097 0.0113267 58 57 55 255 0.174411 0.061667 
1.47862 1.17409 0.5 0 -0.103097 0.0113267 58 57 55 255 0.174411 0.061667 
1.2334 1.17409 0.5 0 -0.103097 0.0113267 58 57 55 255 0.174411 0.061667 
1.2334 1.17409 -0.5 0 -0.103097 -0.0113267 58 57 55 255 0.174411 0.061667 
1.47862 1.17409 -0.5 0 -0.103097 -0.0113267 58 57 55 255 0.174411 0.061667 
1.41393 1.1279 -0.079574 0 -0.103097 -0.0113267 58 57 55 255 0.174411 0.061667 
1.2334 1.17409 -0.5 0 -0.048698 -0.00535019 58 57 55 255 0.174411 0.061667 
1.41393 1.1279 -0.079574 0 -0.048698 -0.00535019 58 57 55 255 0.174411 0.061667 
1.2981 1.1279 -0.079574 0 -0.048698 -0.00535019 58 57 55 255 0.174411 0.061667 
1.41393 1.1279 0.079574 0.00735105 -0.0102953 0 58 57 55 255 0.170851 0.061667 
1.41393 1.1279 -0.079574 0.00735105 -0.0102953 0 58 57 55 255 0.170851 0.061667 
1.47862 1.17409 -0.5 0.00735105 -0.0102953 0 58 57 55 255 0.170851 0.061667 
1.41393 1.1279 0.079574 0.04619 -0.06469 0 58 57 55 255 0.170851 0.061667 
1.47862 1.17409 -0.5 0.04619 -0.06469 0 58 57 55 255 0.170851 0.061667 
1.47862 1.17409 0.5 0.04619 -0.06469 0 58 57 55 255 0.170851 0.061667 
1.2981 1.1279 -0.079574 -0.00735105 -0.0102969 0 58 57 55 255 0.170851 0.061667 
1.2981 1.1279 0.079574 -0.00735105 -0.0102969 0 58 57 55 255 0.170851 0.061667 
1.2334 1.17409 0.5 -0.00735105 -0.0102969 0 58 57 55 255 0.170851 0.061667 
1.2981 1.1279 -0.079574 -0.04619 -0.0647 0 58 57 55 255 0.170851 0.061667 
1.2334 1.17409 0.5 -0.04619 -0.0647 0 58 57 55 255 0.170851 0.061667 
1.2334 1.17409 -0.5 -0.04619 -0.0647 0 58 57 55 255 0.170851 0.061667 
1.2334 1.17409 -0.5 -0.11276 0 0 91 88 86 255 0.233148 0.061667 
1.2334 1.17409 0.5 -0.11276 0 0 91 88 86 255 0.233148 0.061667 
1.2334 1.28685 0.5 -0.11276 0 0 91 88 86 255 0.233148 0.061667 
1.2334 1.17409 -0.5 -0.11276 0 0 91 88 86 255 0.233148 0.061667 
1.2334 1.28685 0.5 -0.11276 0 0 91 88 86 255 0.233148 0.061667 
1.2334 1.28685 -0.5 -0.11276 0 0 91 88 86 255 0.233148 0.061667 
1.2334 1.28685 -0.5 0 0 -0.027651 108 105 102 255 0.265187 0.061667 
1.47862 1.28685 -0.5 0 0 -0.027651 108 105 102 255 0.265187 0.061667 
1.47862 1.17409 -0.5 0 0 -0.027651 108 105 102 255 0.265187 0.061667 
1.2334 1.28685 -0.5 0 0 -0.027651 108 105 102 255 0.265187 0.061667 
1.47862 1.17409 -0.5 0 0 -0.027651 108 105 102 255 0.265187 0.061667 
1.2334 1.17409 -0.5 0 0 -0.027651 108 105 102 255 0.265187 0.061667 
1.47862 1.17409 0.5 0.11276 0 0 91 88 86 255 0.233148 0.061667 
1.47862 1.17409 -0.5 0.11276 0 0 91 88 86 255 0.233148 0.061667 
1.47862 1.28685 -0.5 0.11276 0 0 91 88 86 255 0.233148 0.061667 
1.47862 1.17409 0.5 0.11276 -0 0 91 88 86 255 0.233148 0.061667 
1.47862 1.28685 -0.5 0.11276 -0 0 91 88 86 255 0.233148 0.061667 
1.47862 1.28685 0.5 0.11276 -0 0 91 88 86 255 0.233148 0.061667 
1.2334 1.17409 0.5 0 0 0.027651 108 105 102 255 0.265187 0.061667 
1.47862 1.17409 0.5 0 0 0.027651 108 105 102 255 0.265187 0.061667 
1.47862 1.28685 0.5 0 0 0.027651 108 105 102 255 0.265187 0.061667 
1.2334 1.17409 0.5 0 0 0.027651 108 105 102 255 0.265187 0.061667 
1.47862 1.28685 0.5 0 0 0.027651 108 105 102 255 0.265187 0.061667 
1.2334 1.28685 0.5 0 0 0.027651 108 105 102 255 0.265187 0.061667 
1.2981 0.129897 -0.079574 0 0.0112755 -0.00329791 125 121 118 255 0.296905 0.061667 
1.41393 0.129897 -0.079574 0 0.0112755 -0.00329791 125 121 118 255 0.296905 0.061667 
1.4375 0.101425 -0.176919 0 0.0112755 -0.00329791 125 121 118 255 0.296905 0.061667 
1.2981 0.129897 -0.079574 0 0.0158653 -0.00464037 125 121 118 255 0.296905 0.061667 
1.4375 0.101425 -0.176919 0 0.0158653 -0.00464037 125 121 118 255 0.296905 0.061667 
1.27452 0.101425 -0.176919 0 0.0158653 -0.00464037 125 121 118 255 0.296905 0.061667 
1.27452 0.101425 -0.176919 -0.0100745 0.00834348 0 108 105 102 255 0.264866 0.061667 
1.27452 0.101425 0.176919 -0.0100745 0.00834348 0 108 105 102 255 0.264866 0.061667 
1.2981 0.129897 0.079574 -0.0100745 0.00834348 0 108 105 102 255 0.264866 0.061667 
1.27452 0.101425 -0.176919 -0.00453126 0.0037527 0 108 105 102 255 0.264866 0.061667 
1.2981 0.129897 0.079574 -0.00453126 0.0037527 0 108 105 102 255 0.264866 0.061667 
1.2981 0.129897 -0.079574 -0.00453126 0.0037527 0 108 105 102 255 0.264866 0.061667 
1.27452 0.101425 0.176919 -0 0.0158653 0.00464037 125 121 118 255 0.296905 0.061667 
1.4375 0.101425 0.176919 -0 0.0158653 0.00464037 125 121 118 255 0.296905 0.061667 
1.41393 0.129897 0.079574 -0 0.0158653 0.00464037 125 121 118 255 0.296905 0.061667 
1.27452 0.101425 0.176919 0 0.0112755 0.00329791 125 121 118 255 0.296905 0.061667 
1.41393 0.129897 0.079574 0 0.0112755 0.00329791 125 121 118 255 0.296905 0.061667 
1.2981 0.129897 0.079574 0 0.0112755 0.00329791 125 121 118 255 0.296905 0.061667 
1.4375 0.101425 0.176919 0.0100745 0.00833994 0 108 105 102 255 0.264866 0.061667 
1.4375 0.101425 -0.176919 0.0100745 0.00833994 0 108 105 102 255 0.264866 0.061667 
1.41393 0.129897 -0.079574 0.0100745 0.00833994 0 108 105 102 255 0.264866 0.061667 
1.4375 0.101425 0.176919 0.00453126 0.00375111 0 108 105 102 255 0.264866 0.061667 
1.41393 0.129897 -0.079574 0.00453126 0.00375111 0 108 105 102 255 0.264866 0.061667 
1.41393 0.129897 0.079574 0.00453126 0.00375111 0 108 105 102 255 0.264866 0.061667 
1.27452 0.101425 -0.176919 0 0 -0.0165302 108 105 102 255 0.265187 0.061667 
1.4375 0.101425 -0.176919 0 0 -0.0165302 108 105 102 255 0.265187 0.061667 
1.4375 0 -0.176919 0 0 -0.0165302 108 105 102 255 0.265187 0.061667 
1.27452 0.101425 -0.176919 0 0 -0.0165302 108 105 102 255 0.265187 0.061667 
1.4375 0 -0.176919 0 0 -0.0165302 108 105 102 255 0.265187 0.061667 
1.27452 0 -0.176919 0 0 -0.0165302 108 105 102 255 0.265187 0.061667 
1.27452 0 -0.176919 -0.035888 0 0 91 88 86 255 0.233148 0.061667 
1.27452 0 0.176919 -0.035888 0 0 91 88 86 255 0.233148 0.061667 
1.27452 0.101425 0.176919 -0.035888 0 0 91 88 86 255 0.233148 0.061667 
1.27452 0 -0.176919 -0.035888 0 0 91 88 86 255 0.233148 0.061667 
1.27452 0.101425 0.176919 -0.035888 0 0 91 88 86 255 0.233148 0.061667 
1.27452 0.101425 -0.176919 -0.035888 0 0 91 88 86 255 0.233148 0.061667 
1.27452 0 0.176919 0 0 0.0165302 108 105 102 255 0.265187 0.061667 
1.4375 0 0.176919 0 0 0.0165302 108 105 102 255 0.265187 0.061667 
1.4375 0.101425 0.176919 0 0 0.0165302 108 105 102 255 0.265187 0.061667 
1.27452 0 0.176919 0 0 0.0165302 108 105 102 255 0.265187 0.061667 
1.4375 0.101425 0.176919 0 0 0.0165302 108 105 102 255 0.265187 0.061667 
1.27452 0.101425 0.176919 0 0 0.0165302 108 105 102 255 0.265187 0.061667 
1.4375 0 0.176919 0.035888 0 0 91 88 86 255 0.233148 0.061667 
1.4375 0 -0.176919 0.035888 0 0 91 88 86 255 0.233148 0.061667 
1.4375 0.101425 -0.176919 0.035888 0 0 91 88 86 255 0.233148 0.061667 
1.4375 0 0.176919 0.035888 -0 0 91 88 86 255 0.233148 0.061667 
1.4375 0.101425 -0.176919 0.035888 -0 0 91 88 86 255 0.233148 0.061667 
1.4375 0.101425 0.176919 0.035888 -0 0 91 88 86 255 0.233148 0.061667 
1.2981 0.129897 -0.079574 -0.15883 0 0 89 93 100 255 0.233148 0.0858 
1.2981 0.129897 0.079574 -0.15883 0 0 89 93 100 255 0.233148 0.0858 
1.2981 1.1279 0.079574 -0.15883 0 0 89 93 100 255 0.233148 0.0858 
1.2981 0.129897 -0.079574 -0.15883 0 0 89 93 100 255 0.233148 0.0858 
1.2981 1.1279 0.079574 -0.15883 0 0 89 93 100 255 0.233148 0.0858 
1.2981 1.1279 -0.079574 -0.15883 0 0 89 93 100 255 0.233148 0.0858 
1.2981 1.1279 -0.079574 0 0 -0.115599 105 111 119 255 0.265187 0.0858 
1.41393 1.1279 -0.079574 0 0 -0.115599 105 111 119 255 0.265187 0.0858 
1.41393 0.129897 -0.079574 0 0 -0.115599 105 111 119 255 0.265187 0.0858 
1.2981 1.1279 -0.079574 0 0 -0.115599 105 111 119 255 0.265187 0.0858 
1.41393 0.129897 -0.079574 0 0 -0.115599 105 111 119 255 0.265187 0.0858 
1.2981 0.129897 -0.079574 0 0 -0.115599 105 111 119 255 0.265187 0.0858 
1.41393 0.129897 0.079574 0.15883 0 0 89 93 100 255 0.233148 0.0858 
1.41393 0.129897 -0.079574 0.15883 0 0 89 93 100 255 0.233148 0.0858 
1.41393 1.1279 -0.079574 0.15883 0 0 89 93 100 255 0.233148 0.0858 
1.41393 0.129897 0.079574 0.15883 -0 0 89 93 100 255 0.233148 0.0858 
1.41393 1.1279 -0.079574 0.15883 -0 0 89 93 100 255 0.233148 0.0858 
1.41393 1.1279 0.079574 0.15883 -0 0 89 93 100 255 0.233148 0.0858 
1.2981 0.129897 0.079574 0 0 0.115599 105 111 119 255 0.265187 0.0858 
1.41393 0.129897 0.079574 0 0 0.115599 105 111 119 255 0.265187 0.0858 
1.41393 1.1279 0.079574 0 0 0.115599 105 111 119 255 0.265187 0.0858 
1.2981 0.129897 0.079574 0 0 0.115599 105 111 119 255 0.265187 0.0858 
1.41393 1.1279 0.079574 0 0 0.115599 105 111 119 255 0.265187 0.0858 
1.2981 1.1279 0.079574 0 0 0.115599 105 111 119 255 0.265187 0.0858 
-1.41393 1.1279 0.079574 0 -0.048698 0.00535019 58 57 55 255 0.174411 0.061667 
-1.2981 1.1279 0.079574 0 -0.048698 0.00535019 58 57 55 255 0.174411 0.061667 
-1.2334 1.17409 0.5 0 -0.048698 0.00535019 58 57 55 255 0.174411 0.061667 
-1.41393 1.1279 0.079574 0 -0.103097 0.0113267 58 57 55 255 0.174411 0.061667 
-1.2334 1.17409 0.5 0 -0.103097 0.0113267 58 57 55 255 0.174411 0.061667 
-1.47862 1.17409 0.5 0 -0.103097 0.0113267 58 57 55 255 0.174411 0.061667 
-1.47862 1.17409 -0.5 0 -0.103097 -0.0113267 58 57 55 255 0.174411 0.061667 
-1.2334 1.17409 -0.5 0 -0.103097 -0.0113267 58 57 55 255 0.174411 0.061667 
-1.2981 1.1279 -0.079574 0 -0.103097 -0.0113267 58 57 55 255 0.174411 0.061667 
-1.47862 1.17409 -0.5 0 -0.048698 -0.00535019 58 57 55 255 0.174411 0.061667 
-1.2981 1.1279 -0.079574 0 -0.048698 -0.00535019 58 57 55 255 0.174411 0.061667 
-1.41393 1.1279 -0.079574 0 -0.048698 -0.00535019 58 57 55 255 0.174411 0.061667 
-1.2981 1.1279 0.079574 0.00735105 -0.0102969 0 58 57 55 255 0.170851 0.061667 
-1.2981 1.1279 -0.079574 0.00735105 -0.0102969 0 58 57 55 255 0.170851 0.061667 
-1.2334 1.17409 -0.5 0.00735105 -0.0102969 0 58 57 55 255 0.170851 0.061667 
-1.2981 1.1279 0.079574 0.04619 -0.0647 0 58 57 55 255 0.170851 0.061667 
-1.2334 1.17409 -0.5 0.04619 -0.0647 0 58 57 55 255 0.170851 0.061667 
-1.2334 1.17409 0.5 0.04619 -0.0647 0 58 57 55 255 0.170851 0.061667 
-1.41393 1.1279 -0.079574 -0.00735105 -0.0102953 0 58 57 55 255 0.170851 0.061667 
-1.41393 1.1279 0.079574 -0.00735105 -0.0102953 0 58 57 55 255 0.170851 0.061667 
-1.47862 1.17409 0.5 -0.00735105 -0.0102953 0 58 57 55 255 0.170851 0.061667 
-1.41393 1.1279 -0.079574 -0.04619 -0.06469 0 58 57 55 255 0.170851 0.061667 
-1.47862 1.17409 0.5 -0.04619 -0.06469 0 58 57 55 255 0.170851 0.061667 
-1.47862 1.17409 -0.5 -0.04619 -0.06469 0 58 57 55 255 0.170851 0.061667 
-1.47862 1.17409 -0.5 -0.11276 0 0 91 88 86 255 0.233148 0.061667 
-1.47862 1.17409 0.5 -0.11276 0 0 91 88 86 255 0.233148 0.061667 
-1.47862 1.28685 0.5 -0.11276 0 0 91 88 86 255 0.233148 0.061667 
-1.47862 1.17409 -0.5 -0.11276 0 0 91 88 86 255 0.233148 0.061667 
-1.47862 1.28685 0.5 -0.11276 0 0 91 88 86 255 0.233148 0.061667 
-1.47862 1.28685 -0.5 -0.11276 0 0 91 88 86 255 0.233148 0.061667 
-1.47862 1.28685 -0.5 0 0 -0.027651 108 105 102 255 0.265187 0.061667 
-1.2334 1.28685 -0.5 0 0 -0.027651 108 105 102 255 0.265187 0.061667 
-1.2334 1.17409 -0.5 0 0 -0.027651 108 105 102 255 0.265187 0.061667 
-1.47862 1.28685 -0.5 0 0 -0.027651 108 105 102 255 0.265187 0.061667 
-1.2334 1.17409 -0.5 0 0 -0.027651 108 105 102 255 0.265187 0.061667 
-1.47862 1.17409 -0.5 0 0 -0.027651 108 105 102 255 0.265187 0.061667 
-1.2334 1.17409 0.5 0.11276 0 0 91 88 86 255 0.233148 0.061667 
-1.2334 1.17409 -0.5 0.11276 0 0 91 88 86 255 0.233148 0.061667 
-1.2334 1.28685 -0.5 0.11276 0 0 91 88 86 255 0.233148 0.061667 
-1.2334 1.17409 0.5 0.11276 -0 0 91 88 86 255 0.233148 0.061667 
-1.2334 1.28685 -0.5 0.11276 -0 0 91 88 86 255 0.233148 0.061667 
-1.2334 1.28685 0.5 0.11276 -0 0 91 88 86 255 0.233148 0.061667 
-1.47862 1.17409 0.5 0 0 0.027651 108 105 102 255 0.265187 0.061667 
-1.2334 1.17409 0.5 0 0 0.027651 108 105 102 255 0.265187 0.061667 
-1.2334 1.28685 0.5 0 0 0.027651 108 105 102 255 0.265187 0.061667 
-1.47862 1.17409 0.5 0 0 0.027651 108 105 102 255 0.265187 0.061667 
-1.2334 1.28685 0.5 0 0 0.027651 108 105 102 255 0.265187 0.061667 
-1.47862 1.28685 0.5 0 0 0.027651 108 105 102 255 0.265187 0.061667 
-1.41393 0.129897 -0.079574 0 0.0112755 -0.00329791 125 121 118 255 0.296905 0.061667 
-1.2981 0.129897 -0.079574 0 0.0112755 -0.00329791 125 121 118 255 0.296905 0.061667 
-1.27452 0.101425 -0.176919 0 0.0112755 -0.00329791 125 121 118 255 0.296905 0.061667 
-1.41393 0.129897 -0.079574 0 0.0158653 -0.00464037 125 121 118 255 0.296905 0.061667 
-1.27452 0.101425 -0.176919 0 0.0158653 -0.00464037 125 121 118 255 0.296905 0.061667 
-1.4375 0.101425 -0.176919 0 0.0158653 -0.00464037 125 121 118 255 0.296905 0.061667 
-1.4375 0.101425 -0.176919 -0.0100745 0.00833994 0 108 105 102 255 0.264866 0.061667 
-1.4375 0.101425 0.176919 -0.0100745 0.00833994 0 108 105 102 255 0.264866 0.061667 
-1.41393 0.129897 0.079574 -0.0100745 0.00833994 0 108 105 102 255 0.264866 0.061667 
-1.4375 0.101425 -0.176919 -0.00453126 0.00375111 0 108 105 102 255 0.264866 0.061667 
-1.41393 0.129897 0.079574 -0.00453126 0.00375111 0 108 105 102 255 0.264866 0.061667 
-1.41393 0.129897 -0.079574 -0.00453126 0.00375111 0 108 105 102 255 0.264866 0.061667 
-1.4375 0.101425 0.176919 -0 0.0158653 0.00464037 125 121 118 255 0.296905 0.061667 
-1.27452 0.101425 0.176919 -0 0.0158653 0.00464037 125 121 118 255 0.296905 0.061667 
-1.2981 0.129897 0.079574 -0 0.0158653 0.00464037 125 121 118 255 0.296905 0.061667 
-1.4375 0.101425 0.176919 0 0.0112755 0.00329791 125 121 118 255 0.296905 0.061667 
-1.2981 0.129897 0.079574 0 0.0112755 0.00329791 125 121 118 255 0.296905 0.061667 
-1.41393 0.129897 0.079574 0 0.0112755 0.00329791 125 121 118 255 0.296905 0.061667 
-1.27452 0.101425 0.176919 0.0100745 0.00834348 0 108 105 102 255 0.264866 0.061667 
-1.27452 0.101425 -0.176919 0.0100745 0.00834348 0 108 105 102 255 0.264866 0.061667 
-1.2981 0.129897 -0.079574 0.0100745 0.00834348 0 108 105 102 255 0.264866 0.061667 
-1.27452 0.101425 0.176919 0.00453126 0.0037527 0 108 105 102 255 0.264866 0.061667 
-1.2981 0.129897 -0.079574 0.00453126 0.0037527 0 108 105 102 255 0.264866 0.061667 
-1.2981 0.129897 0.079574 0.00453126 0.0037527 0 108 105 102 255 0.264866 0.061667 
-1.4375 0.101425 -0.176919 0 0 -0.0165302 108 105 102 255 0.265187 0.061667 
-1.27452 0.101425 -0.176919 0 0 -0.0165302 108 105 102 255 0.265187 0.061667 
-1.27452 0 -0.176919 0 0 -0.0165302 108 105 102 255 0.265187 0.061667 
-1.4375 0.101425 -0.176919 0 0 -0.0165302 108 105 102 255 0.265187 0.061667 
-1.27452 0 -0.176919 0 0 -0.0165302 108 105 102 255 0.265187 0.061667 
-1.4375 0 -0.176919 0 0 -0.0165302 108 105 102 255 0.265187 0.061667 
-1.4375 0 -0.176919 -0.035888 0 0 91 88 86 255 0.233148 0.061667 
-1.4375 0 0.176919 -0.035888 0 0 91 88 86 255 0.233148 0.061667 
-1.4375 0.101425 0.176919 -0.035888 0 0 91 88 86 255 0.233148 0.061667 
-1.4375 0 -0.176919 -0.035888 0 0 91 88 86 255 0.233148 0.061667 
-1.4375 0.101425 0.176919 -0.035888 0 0 91 88 86 255 0.233148 0.061667 
-1.4375 0.101425 -0.176919 -0.035888 0 0 91 88 86 255 0.233148 0.061667 
-1.4375 0 0.176919 0 0 0.0165302 108 105 102 255 0.265187 0.061667 
-1.27452 0 0.176919 0 0 0.0165302 108 105 102 255 0.265187 0.061667 
-1.27452 0.101425 0.176919 0 0 0.0165302 108 105 102 255 0.265187 0.061667 
-1.4375 0 0.176919 0 0 0.0165302 108 105 102 255 0.265187 0.061667 
-1.27452 0.101425 0.176919 0 0 0.0165302 108 105 102 255 0.265187 0.061667 
-1.4375 0.101425 0.176919 0 0 0.0165302 108 105 102 255 0.265187 0.061667 
-1.27452 0 0.176919 0.035888 0 0 91 88 86 255 0.233148 0.061667 
-1.27452 0 -0.176919 0.035888 0 0 91 88 86 255 0.233148 0.061667 
-1.27452 0.101425 -0.176919 0.035888 0 0 91 88 86 255 0.233148 0.061667 
-1.27452 0 0.176919 0.035888 -0 0 91 88 86 255 0.233148 0.061667 
-1.27452 0.101425 -0.176919 0.035888 -0 0 91 88 86 255 0.233148 0.061667 
-1.27452 0.101425 0.176919 0.035888 -0 0 91 88 86 255 0.233148 0.061667 
-1.41393 0.129897 -0.079574 -0.15883 0 0 89 93 100 255 0.233148 0.0858 
-1.41393 0.129897 0.079574 -0.15883 0 0 89 93 100 255 0.233148 0.0858 
-1.41393 1.1279 0.079574 -0.15883 0 0 89 93 100 255 0.233148 0.0858 
-1.41393 0.129897 -0.079574 -0.15883 0 0 89 93 100 255 0.233148 0.0858 
-1.41393 1.1279 0.079574 -0.15883 0 0 89 93 100 255 0.233148 0.0858 
-1.41393 1.1279 -0.079574 -0.15883 0 0 89 93 100 255 0.233148 0.0858 
-1.41393 1.1279 -0.079574 0 0 -0.115599 105 111 119 255 0.265187 0.0858 
-1.2981 1.1279 -0.079574 0 0 -0.115599 105 111 119 255 0.265187 0.0858 
-1.2981 0.129897 -0.079574 0 0 -0.115599 105 111 119 255 0.265187 0.0858 
-1.41393 1.1279 -0.079574 0 0 -0.115599 105 111 119 255 0.265187 0.0858 
-1.2981 0.129897 -0.079574 0 0 -0.115599 105 111 119 255 0.265187 0.0858 
-1.41393 0.129897 -0.079574 0 0 -0.115599 105 111 119 255 0.265187 0.0858 
-1.2981 0.129897 0.079574 0.15883 0 0 89 93 100 255 0.233148 0.0858 
-1.2981 0.129897 -0.079574 0.15883 0 0 89 93 100 255 0.233148 0.0858 
-1.2981 1.1279 -0.079574 0.15883 0 0 89 93 100 255 0.233148 0.0858 
-1.2981 0.129897 0.079574 0.15883 -0 0 89 93 100 255 0.233148 0.0858 
-1.2981 1.1279 -0.079574 0.15883 -0 0 89 93 100 255 0.233148 0.0858 
-1.2981 1.1279 0.079574 0.15883 -0 0 89 93 100 255 0.233148 0.0858 
-1.41393 0.129897 0.079574 0 0 0.115599 105 111 119 255 0.265187 0.0858 
-1.2981 0.129897 0.079574 0 0 0.115599 105 111 119 255 0.265187 0.0858 
-1.2981 1.1279 0.079574 0 0 0.115599 105 111 119 255 0.265187 0.0858 
-1.41393 0.129897 0.079574 0 0 0.115599 105 111 119 255 0.265187 0.0858 
-1.2981 1.1279 0.079574 0 0 0.115599 105 111 119 255 0.265187 0.0858 
-1.41393 1.1279 0.079574 0 0 0.115599 105 111 119 255 0.265187 0.0858 
-1.624 1.28685 0.817663 0 0 0.460761 122 128 138 255 0.28932 0.084142 
1.624 1.28685 0.817663 0 0 0.460761 122 128 138 255 0.28932 0.084142 
1.624 1.42871 0.817663 0 0 0.460761 122 128 138 255 0.28932 0.084142 
-1.624 1.28685 0.817663 0 0 0.460761 122 128 138 255 0.28932 0.084142 
1.624 1.42871 0.817663 0 0 0.460761 122 128 138 255 0.28932 0.084142 
-1.624 1.42871 0.817663 0 0 0.460761 122 128 138 255 0.28932 0.084142 
-1.46987 1.42871 0.696874 -0 4.09726 0 125 121 118 255 0.300052 0.061667 
1.46987 1.42871 0.696874 -0 4.09726 0 125 121 118 255 0.300052 0.061667 
1.46987 1.42871 -0.696874 -0 4.09726 0 125 121 118 255 0.300052 0.061667 
-1.46987 1.42871 0.696874 0 4.09726 0 125 121 118 255 0.300052 0.061667 
1.46987 1.42871 -0.696874 0 4.09726 0 125 121 118 255 0.300052 0.061667 
-1.46987 1.42871 -0.696874 0 4.09726 0 125 121 118 255 0.300052 0.061667 
-1.624 1.42871 -0.817663 0 0 -0.460761 122 128 138 255 0.28932 0.084142 
1.624 1.42871 -0.817663 0 0 -0.460761 122 128 138 255 0.28932 0.084142 
1.624 1.28685 -0.817663 0 0 -0.460761 122 128 138 255 0.28932 0.084142 
-1.624 1.42871 -0.817663 0 0 -0.460761 122 128 138 255 0.28932 0.084142 
1.624 1.28685 -0.817663 0 0 -0.460761 122 128 138 255 0.28932 0.084142 
-1.624 1.28685 -0.817663 0 0 -0.460761 122 128 138 255 0.28932 0.084142 
1.624 1.28685 0.817663 0.231987 0 0 105 111 119 255 0.257282 0.084142 
1.624 1.28685 -0.817663 0.231987 0 0 105 111 119 255 0.257282 0.084142 
1.624 1.42871 -0.817663 0.231987 0 0 105 111 119 255 0.257282 0.084142 
1.624 1.28685 0.817663 0.231987 -0 0 105 111 119 255 0.257282 0.084142 
1.624 1.42871 -0.817663 0.231987 -0 0 105 111 119 255 0.257282 0.084142 
1.624 1.42871 0.817663 0.231987 -0 0 105 111 119 255 0.257282 0.084142 
-1.624 1.28685 -0.817663 -0.231987 0 0 105 111 119 255 0.257282 0.084142 
-1.624 1.28685 0.817663 -0.231987 0 0 105 111 119 255 0.257282 0.084142 
-1.624 1.42871 0.817663 -0.231987 0 0 105 111 119 255 0.257282 0.084142 
-1.624 1.28685 -0.817663 -0.115994 0 0 105 111 119 255 0.257282 0.084142 
-1.624 1.42871 0.817663 -0.115994 0 0 105 111 119 255 0.257282 0.084142 
-1.624 1.42871 0 -0.115994 0 0 105 111 119 255 0.257282 0.084142 
-1.624 1.28685 -0.817663 -0.115994 0 0 105 111 119 255 0.257282 0.084142 
-1.624 1.42871 0 -0.115994 0 0 105 111 119 255 0.257282 0.084142 
-1.624 1.42871 -0.817663 -0.115994 0 0 105 111 119 255 0.257282 0.084142 
1.46987 1.42871 0.696874 0 0.355088 0 138 145 155 255 0.3205 0.084551 
-1.46987 1.42871 0.696874 0 0.355088 0 138 145 155 255 0.3205 0.084551 
-1.624 1.42871 0.817663 0 0.355088 0 138 145 155 255 0.3205 0.084551 
1.46987 1.42871 0.696874 0 0.392323 -0 138 145 155 255 0.3205 0.084551 
-1.624 1.42871 0.817663 0 0.392323 -0 138 145 155 255 0.3205 0.084551 
1.624 1.42871 0.817663 0 0.392323 -0 138 145 155 255 0.3205 0.084551 
-1.46987 1.42871 -0.696874 -0 0.355088 0 138 145 155 255 0.3205 0.084551 
1.46987 1.42871 -0.696874 -0 0.355088 0 138 145 155 255 0.3205 0.084551 
1.624 1.42871 -0.817663 -0 0.355088 0 138 145 155 255 0.3205 0.084551 
-1.46987 1.42871 -0.696874 0 0.392323 0 138 145 155 255 0.3205 0.084551 
1.624 1.42871 -0.817663 0 0.392323 0 138 145 155 255 0.3205 0.084551 
-1.624 1.42871 -0.817663 0 0.392323 0 138 145 155 255 0.3205 0.084551 
1.46987 1.42871 -0.696874 0 0.214818 0 138 145 155 255 0.3205 0.084551 
1.46987 1.42871 0.696874 0 0.214818 0 138 145 155 255 0.3205 0.084551 
1.624 1.42871 0.817663 0 0.214818 0 138 145 155 255 0.3205 0.084551 
1.46987 1.42871 -0.696874 -0 0.252053 0 138 145 155 255 0.3205 0.084551 
1.624 1.42871 0.817663 -0 0.252053 0 138 145 155 255 0.3205 0.084551 
1.624 1.42871 -0.817663 -0 0.252053 0 138 145 155 255 0.3205 0.084551 
1.624 1.28685 -0.817663 0 -5.31154 0 89 93 100 255 0.225805 0.083847 
1.624 1.28685 0.817663 0 -5.31154 0 89 93 100 255 0.225805 0.083847 
-1.624 1.28685 0.817663 0 -5.31154 0 89 93 100 255 0.225805 0.083847 
1.624 1.28685 -0.817663 0 -5.31154 0 89 93 100 255 0.225805 0.083847 
-1.624 1.28685 0.817663 0 -5.31154 0 89 93 100 255 0.225805 0.083847 
-1.624 1.28685 -0.817663 0 -5.31154 0 89 93 100 255 0.225805 0.083847 
-1.46987 1.42871 0.696874 0 0.214818 0 138 145 155 255 0.3205 0.084551 
-1.46987 1.42871 -0.696874 0 0.214818 0 138 145 155 255 0.3205 0.084551 
-1.624 1.42871 -0.817663 0 0.214818 0 138 145 155 255 0.3205 0.084551 
-1.46987 1.42871 0.696874 0 0.126026 0 138 145 155 255 0.3205 0.084551 
-1.624 1.42871 -0.817663 0 0.126026 0 138 145 155 255 0.3205 0.084551 
-1.624 1.42871 0 0 0.126026 0 138 145 155 255 0.3205 0.084551 
-1.46987 1.42871 0.696874 0 0.126026 0 138 145 155 255 0.3205 0.084551 
-1.624 1.42871 0 0 0.126026 0 138 145 155 255 0.3205 0.084551 
-1.624 1.42871 0.817663 0 0.126026 0 138 145 155 255 0.3205 0.084551 
3 0 1 2
3 3 4 5
3 6 7 8
3 9 10 11
3 12 13 14
3 15 16 17
3 18 19 20
3 21 22 23
3 24 25 26
3 27 28 29
3 30 31 32
3 33 34 35
3 36 37 38
3 39 40 41
3 42 43 44
3 45 46 47
3 48 49 50
3 51 52 53
3 54 55 56
3 57 58 59
3 60 61 62
3 63 64 65
3 66 67 68
3 69 70 71
3 72 73 74
3 75 76 77
3 78 79 80
3 81 82 83
3 84 85 86
3 87 88 89
3 90 91 92
3 93 94 95
3 96 97 98
3 99 100 101
3 102 103 104
3 105 106 107
3 108 109 110
3 111 112 113
3 114 115 116
3 117 118 119
3 120 121 122
3 123 124 125
3 126 127 128
3 129 130 131
3 132 133 134
3 135 136 137
3 138 139 140
3 141 142 143
3 144 145 146
3 147 148 149
3 150 151 152
3 153 154 155
3 156 157 158
3 159 160 161
3 162 163 164
3 165 166 167
3 168 169 170
3 171 172 173
3 174 175 176
3 177 178 179
3 180 181 182
3 183 184 185
3 186 187 188
3 189 190 191
3 192 193 194
3 195 196 197
3 198 199 200
3 201 202 203
3 204 205 206
3 207 208 209
3 210 211 212
3 213 214 215
3 216 217 218
3 219 220 221
3 222 223 224
3 225 226 227
3 228 229 230
3 231 232 233
3 234 235 236
3 237 238 239
3 240 241 242
3 243 244 245
3 246 247 248
3 249 250 251
3 252 253 254
3 255 256 257
3 258 259 260
3 261 262 263
3 264 265 266
3 267 268 269
3 270 271 272
3 273 274 275
3 276 277 278
3 279 280 281
3 282 283 284
3 285 286 287
3 288 289 290
3 291 292 293
3 294 295 296
3 297 298 299
3 300 301 302
3 303 304 305
