ply
format ascii 1.0
comment Feeney's Flatenator generated
comment TextureFile SpaceInteriors_Texture.png
element vertex 144
property float x
property float y
property float z
property float nx
property float ny
property float nz
property uchar red
property uchar green
property uchar blue
property uchar alpha
property float texture_u
property float texture_v
element face 48
property list uchar int vertex_indices
end_header
-0.602255 0.453915 0.141842 -0.144718 0 0 141 137 133 255 0.323934 0.064371 
-0.602255 0.453915 0.27734 -0.144718 0 0 141 137 133 255 0.323934 0.064371 
-0.602255 1.52196 0.27734 -0.144718 0 0 141 137 133 255 0.323934 0.064371 
-0.602255 0.453915 0.141842 -0.144718 0 0 141 137 133 255 0.323934 0.064371 
-0.602255 1.52196 0.27734 -0.144718 0 0 141 137 133 255 0.323934 0.064371 
-0.602255 1.52196 0.141842 -0.144718 0 0 141 137 133 255 0.323934 0.064371 
-0.602255 1.52196 0.141842 0 0.163209 0 172 167 162 255 0.392734 0.062207 
-0.602255 1.52196 0.27734 0 0.163209 0 172 167 162 255 0.392734 0.062207 
0.602257 1.52196 0.27734 0 0.163209 0 172 167 162 255 0.392734 0.062207 
-0.602255 1.52196 0.141842 0 0.163209 0 172 167 162 255 0.392734 0.062207 
0.602257 1.52196 0.27734 0 0.163209 0 172 167 162 255 0.392734 0.062207 
0.602257 1.52196 0.141842 0 0.163209 0 172 167 162 255 0.392734 0.062207 
0.602257 1.52196 0.141842 0.144718 0 -0 141 137 133 255 0.323934 0.064371 
0.602257 1.52196 0.27734 0.144718 0 -0 141 137 133 255 0.323934 0.064371 
0.602257 0.453915 0.27734 0.144718 0 -0 141 137 133 255 0.323934 0.064371 
0.602257 1.52196 0.141842 0.144718 0 0 141 137 133 255 0.323934 0.064371 
0.602257 0.453915 0.27734 0.144718 0 0 141 137 133 255 0.323934 0.064371 
0.602257 0.453915 0.141842 0.144718 0 0 141 137 133 255 0.323934 0.064371 
0.602257 0.453915 0.141842 0 -0.163209 0 141 137 133 255 0.323934 0.064371 
0.602257 0.453915 0.27734 0 -0.163209 0 141 137 133 255 0.323934 0.064371 
-0.602255 0.453915 0.27734 0 -0.163209 0 141 137 133 255 0.323934 0.064371 
0.602257 0.453915 0.141842 0 -0.163209 0 141 137 133 255 0.323934 0.064371 
-0.602255 0.453915 0.27734 0 -0.163209 0 141 137 133 255 0.323934 0.064371 
-0.602255 0.453915 0.141842 0 -0.163209 0 141 137 133 255 0.323934 0.064371 
-0.528818 0.524809 0.27734 0 0 0.979649 30 101 150 255 0.36199 0.336548 
0.52882 0.524809 0.27734 0 0 0.979649 30 101 150 255 0.36199 0.336548 
0.52882 1.45107 0.27734 0 0 0.979649 30 101 150 255 0.36199 0.336548 
-0.528818 0.524809 0.27734 0 0 0.979649 30 101 150 255 0.36199 0.336548 
0.52882 1.45107 0.27734 0 0 0.979649 30 101 150 255 0.36199 0.336548 
-0.528818 1.45107 0.27734 0 0 0.979649 30 101 150 255 0.36199 0.336548 
0.602257 0.453915 0.141842 0 0 -1.28647 157 152 148 255 0.357252 0.063072 
-0.602255 0.453915 0.141842 0 0 -1.28647 157 152 148 255 0.357252 0.063072 
-0.602255 1.52196 0.141842 0 0 -1.28647 157 152 148 255 0.357252 0.063072 
0.602257 0.453915 0.141842 0 0 -1.28647 157 152 148 255 0.357252 0.063072 
-0.602255 1.52196 0.141842 0 0 -1.28647 157 152 148 255 0.357252 0.063072 
0.602257 1.52196 0.141842 0 0 -1.28647 157 152 148 255 0.357252 0.063072 
-0.602255 0.453915 0.27734 0 0 0.0853927 157 152 148 255 0.357252 0.063072 
0.602257 0.453915 0.27734 0 0 0.0853927 157 152 148 255 0.357252 0.063072 
0.52882 0.524809 0.27734 0 0 0.0853927 157 152 148 255 0.357252 0.063072 
-0.602255 0.453915 0.27734 0 0 0.0749802 157 152 148 255 0.357252 0.063072 
0.52882 0.524809 0.27734 0 0 0.0749802 157 152 148 255 0.357252 0.063072 
-0.528818 0.524809 0.27734 0 0 0.0749802 157 152 148 255 0.357252 0.063072 
0.602257 0.453915 0.27734 0 -0 0.0784341 157 152 148 255 0.357252 0.063072 
0.602257 1.52196 0.27734 0 -0 0.0784341 157 152 148 255 0.357252 0.063072 
0.52882 1.45107 0.27734 0 -0 0.0784341 157 152 148 255 0.357252 0.063072 
0.602257 0.453915 0.27734 0 0 0.0680219 157 152 148 255 0.357252 0.063072 
0.52882 1.45107 0.27734 0 0 0.0680219 157 152 148 255 0.357252 0.063072 
0.52882 0.524809 0.27734 0 0 0.0680219 157 152 148 255 0.357252 0.063072 
0.602257 1.52196 0.27734 0 0 0.0853879 157 152 148 255 0.357252 0.063072 
-0.602255 1.52196 0.27734 0 0 0.0853879 157 152 148 255 0.357252 0.063072 
-0.528818 1.45107 0.27734 0 0 0.0853879 157 152 148 255 0.357252 0.063072 
0.602257 1.52196 0.27734 0 0 0.074976 157 152 148 255 0.357252 0.063072 
-0.528818 1.45107 0.27734 0 0 0.074976 157 152 148 255 0.357252 0.063072 
0.52882 1.45107 0.27734 0 0 0.074976 157 152 148 255 0.357252 0.063072 
-0.602255 1.52196 0.27734 0 0 0.078434 157 152 148 255 0.357252 0.063072 
-0.602255 0.453915 0.27734 0 0 0.078434 157 152 148 255 0.357252 0.063072 
-0.528818 0.524809 0.27734 0 0 0.078434 157 152 148 255 0.357252 0.063072 
-0.602255 1.52196 0.27734 0 0 0.0680218 157 152 148 255 0.357252 0.063072 
-0.528818 0.524809 0.27734 0 0 0.0680218 157 152 148 255 0.357252 0.063072 
-0.528818 1.45107 0.27734 0 0 0.0680218 157 152 148 255 0.357252 0.063072 
-0.132648 0.1047 -0.141842 -0.301811 0 0 44 43 42 255 0.136075 0.064742 
-0.132648 0.1047 0.141842 -0.301811 0 0 44 43 42 255 0.136075 0.064742 
-0.132648 1.1686 0.141842 -0.301811 0 0 44 43 42 255 0.136075 0.064742 
-0.132648 0.1047 -0.141842 -0.301811 0 0 44 43 42 255 0.136075 0.064742 
-0.132648 1.1686 0.141842 -0.301811 0 0 44 43 42 255 0.136075 0.064742 
-0.132648 1.1686 -0.141842 -0.301811 0 0 44 43 42 255 0.136075 0.064742 
-0.132648 1.1686 -0.141842 0 0.0817816 0 75 72 70 255 0.201413 0.06431 
-0.132648 1.1686 0.141842 0 0.0817816 0 75 72 70 255 0.201413 0.06431 
0.155636 1.1686 0.141842 0 0.0817816 0 75 72 70 255 0.201413 0.06431 
-0.132648 1.1686 -0.141842 0 0.0817816 0 75 72 70 255 0.201413 0.06431 
0.155636 1.1686 0.141842 0 0.0817816 0 75 72 70 255 0.201413 0.06431 
0.155636 1.1686 -0.141842 0 0.0817816 0 75 72 70 255 0.201413 0.06431 
0.155636 1.1686 -0.141842 0.301811 0 -0 44 43 42 255 0.136075 0.064742 
0.155636 1.1686 0.141842 0.301811 0 -0 44 43 42 255 0.136075 0.064742 
0.155636 0.1047 0.141842 0.301811 0 -0 44 43 42 255 0.136075 0.064742 
0.155636 1.1686 -0.141842 0.301811 0 0 44 43 42 255 0.136075 0.064742 
0.155636 0.1047 0.141842 0.301811 0 0 44 43 42 255 0.136075 0.064742 
0.155636 0.1047 -0.141842 0.301811 0 0 44 43 42 255 0.136075 0.064742 
0.344231 0 -0.327431 0 -0.435794 0 44 43 42 255 0.136075 0.064742 
0.344231 0 0.327431 0 -0.435794 0 44 43 42 255 0.136075 0.064742 
-0.321243 0 0.327431 0 -0.435794 0 44 43 42 255 0.136075 0.064742 
0.344231 0 -0.327431 0 -0.435794 0 44 43 42 255 0.136075 0.064742 
-0.321243 0 0.327431 0 -0.435794 0 44 43 42 255 0.136075 0.064742 
-0.321243 0 -0.327431 0 -0.435794 0 44 43 42 255 0.136075 0.064742 
-0.132648 0.1047 0.141842 0 0 0.306705 58 57 55 255 0.169393 0.063444 
0.155636 0.1047 0.141842 0 0 0.306705 58 57 55 255 0.169393 0.063444 
0.155636 1.1686 0.141842 0 0 0.306705 58 57 55 255 0.169393 0.063444 
-0.132648 0.1047 0.141842 0 0 0.306705 58 57 55 255 0.169393 0.063444 
0.155636 1.1686 0.141842 0 0 0.306705 58 57 55 255 0.169393 0.063444 
-0.132648 1.1686 0.141842 0 0 0.306705 58 57 55 255 0.169393 0.063444 
0.155636 0.1047 -0.141842 0 0 -0.306705 58 57 55 255 0.169393 0.063444 
-0.132648 0.1047 -0.141842 0 0 -0.306705 58 57 55 255 0.169393 0.063444 
-0.132648 1.1686 -0.141842 0 0 -0.306705 58 57 55 255 0.169393 0.063444 
0.155636 0.1047 -0.141842 0 0 -0.306705 58 57 55 255 0.169393 0.063444 
-0.132648 1.1686 -0.141842 0 0 -0.306705 58 57 55 255 0.169393 0.063444 
0.155636 1.1686 -0.141842 0 0 -0.306705 58 57 55 255 0.169393 0.063444 
0.155636 0.1047 -0.141842 0 0.0535014 0 75 72 70 255 0.201413 0.06431 
0.155636 0.1047 0.141842 0 0.0535014 0 75 72 70 255 0.201413 0.06431 
0.344231 0.1047 0.327431 0 0.0535014 0 75 72 70 255 0.201413 0.06431 
0.155636 0.1047 -0.141842 -0 0.123504 0 75 72 70 255 0.201413 0.06431 
0.344231 0.1047 0.327431 -0 0.123504 0 75 72 70 255 0.201413 0.06431 
0.344231 0.1047 -0.327431 -0 0.123504 0 75 72 70 255 0.201413 0.06431 
0.155636 0.1047 0.141842 0 0.0535023 0 75 72 70 255 0.201413 0.06431 
-0.132648 0.1047 0.141842 0 0.0535023 0 75 72 70 255 0.201413 0.06431 
-0.321243 0.1047 0.327431 0 0.0535023 0 75 72 70 255 0.201413 0.06431 
0.155636 0.1047 0.141842 0 0.123505 -0 75 72 70 255 0.201413 0.06431 
-0.321243 0.1047 0.327431 0 0.123505 -0 75 72 70 255 0.201413 0.06431 
0.344231 0.1047 0.327431 0 0.123505 -0 75 72 70 255 0.201413 0.06431 
-0.132648 0.1047 0.141842 0 0.0535014 0 75 72 70 255 0.201413 0.06431 
-0.132648 0.1047 -0.141842 0 0.0535014 0 75 72 70 255 0.201413 0.06431 
-0.321243 0.1047 -0.327431 0 0.0535014 0 75 72 70 255 0.201413 0.06431 
-0.132648 0.1047 0.141842 0 0.123504 0 75 72 70 255 0.201413 0.06431 
-0.321243 0.1047 -0.327431 0 0.123504 0 75 72 70 255 0.201413 0.06431 
-0.321243 0.1047 0.327431 0 0.123504 0 75 72 70 255 0.201413 0.06431 
-0.132648 0.1047 -0.141842 -0 0.0535023 0 75 72 70 255 0.201413 0.06431 
0.155636 0.1047 -0.141842 -0 0.0535023 0 75 72 70 255 0.201413 0.06431 
0.344231 0.1047 -0.327431 -0 0.0535023 0 75 72 70 255 0.201413 0.06431 
-0.132648 0.1047 -0.141842 0 0.123505 0 75 72 70 255 0.201413 0.06431 
0.344231 0.1047 -0.327431 0 0.123505 0 75 72 70 255 0.201413 0.06431 
-0.321243 0.1047 -0.327431 0 0.123505 0 75 72 70 255 0.201413 0.06431 
0.344231 0.1047 -0.327431 0.068564 0 -0 44 43 42 255 0.136075 0.064742 
0.344231 0.1047 0.327431 0.068564 0 -0 44 43 42 255 0.136075 0.064742 
0.344231 0 0.327431 0.068564 0 -0 44 43 42 255 0.136075 0.064742 
0.344231 0.1047 -0.327431 0.068564 0 0 44 43 42 255 0.136075 0.064742 
0.344231 0 0.327431 0.068564 0 0 44 43 42 255 0.136075 0.064742 
0.344231 0 -0.327431 0.068564 0 0 44 43 42 255 0.136075 0.064742 
0.344231 0.1047 0.327431 0 0 0.0696751 58 57 55 255 0.169393 0.063444 
-0.321243 0.1047 0.327431 0 0 0.0696751 58 57 55 255 0.169393 0.063444 
-0.321243 0 0.327431 0 0 0.0696751 58 57 55 255 0.169393 0.063444 
0.344231 0.1047 0.327431 0 0 0.0696751 58 57 55 255 0.169393 0.063444 
-0.321243 0 0.327431 0 0 0.0696751 58 57 55 255 0.169393 0.063444 
0.344231 0 0.327431 0 0 0.0696751 58 57 55 255 0.169393 0.063444 
-0.321243 0.1047 0.327431 -0.068564 0 -0 44 43 42 255 0.136075 0.064742 
-0.321243 0.1047 -0.327431 -0.068564 0 -0 44 43 42 255 0.136075 0.064742 
-0.321243 0 -0.327431 -0.068564 0 -0 44 43 42 255 0.136075 0.064742 
-0.321243 0.1047 0.327431 -0.068564 -0 0 44 43 42 255 0.136075 0.064742 
-0.321243 0 -0.327431 -0.068564 -0 0 44 43 42 255 0.136075 0.064742 
-0.321243 0 0.327431 -0.068564 -0 0 44 43 42 255 0.136075 0.064742 
-0.321243 0.1047 -0.327431 0 0 -0.0696751 58 57 55 255 0.169393 0.063444 
0.344231 0.1047 -0.327431 0 0 -0.0696751 58 57 55 255 0.169393 0.063444 
0.344231 0 -0.327431 0 0 -0.0696751 58 57 55 255 0.169393 0.063444 
-0.321243 0.1047 -0.327431 0 0 -0.0696751 58 57 55 255 0.169393 0.063444 
0.344231 0 -0.327431 0 0 -0.0696751 58 57 55 255 0.169393 0.063444 
-0.321243 0 -0.327431 0 0 -0.0696751 58 57 55 255 0.169393 0.063444 
3 0 1 2
3 3 4 5
3 6 7 8
3 9 10 11
3 12 13 14
3 15 16 17
3 18 19 20
3 21 22 23
3 24 25 26
3 27 28 29
3 30 31 32
3 33 34 35
3 36 37 38
3 39 40 41
3 42 43 44
3 45 46 47
3 48 49 50
3 51 52 53
3 54 55 56
3 57 58 59
3 60 61 62
3 63 64 65
3 66 67 68
3 69 70 71
3 72 73 74
3 75 76 77
3 78 79 80
3 81 82 83
3 84 85 86
3 87 88 89
3 90 91 92
3 93 94 95
3 96 97 98
3 99 100 101
3 102 103 104
3 105 106 107
3 108 109 110
3 111 112 113
3 114 115 116
3 117 118 119
3 120 121 122
3 123 124 125
3 126 127 128
3 129 130 131
3 132 133 134
3 135 136 137
3 138 139 140
3 141 142 143
